<svg width="200" height="72" viewBox="0 0 200 72" fill="none" xmlns="http://www.w3.org/2000/svg">
<path d="M78.099 32.276H72.919C72.771 32.276 72.623 32.276 72.401 32.165C74.066 26.8 75.768 21.509 79.69 17.143C79.949 17.624 79.949 17.957 79.986 18.327C80.097 19.215 80.171 20.103 80.171 20.991C80.171 22.212 80.06 23.433 79.949 24.691L79.394 31.018C79.283 32.239 79.32 32.239 78.099 32.276ZM82.465 51.109C83.686 51.109 84.907 50.554 84.907 49.518C84.907 48.704 84.352 47.668 84.167 46.558C83.945 45.004 83.871 43.45 83.871 41.859C83.945 36.272 84.352 32.831 84.833 27.096C84.981 25.616 85.055 24.136 85.055 22.693C85.055 21.546 85.018 20.436 84.87 19.326C84.722 17.994 84.426 16.699 83.649 15.589C82.724 14.22 81.392 13.517 79.986 13.517C78.913 13.517 77.84 13.924 76.878 14.812C76.73 14.923 76.619 15.034 76.508 15.182C75.805 15.922 75.213 16.736 74.658 17.587C69.774 25.172 67.406 35.014 66.074 43.598C65.852 45.152 65.63 46.706 65.63 48.297C65.667 49.74 65.963 51.072 67.258 51.072C67.924 51.035 68.146 50.887 68.294 49.962L68.331 49.888C69.034 45.559 70.107 40.601 71.217 36.272C71.328 35.939 71.402 35.791 71.809 35.791H78.321C78.876 35.791 78.987 35.791 78.987 36.161C78.913 37.567 78.839 38.751 78.839 40.12V44.523C78.913 46.188 79.172 47.816 79.727 49.407C80.134 50.628 81.281 51.109 82.465 51.109Z" fill="#2E4960"/>
<path d="M102.109 51.109C103.33 51.109 104.551 50.517 104.551 49.518C104.551 48.778 104.033 47.816 103.885 46.891C103.589 45.152 103.478 43.376 103.478 41.6C103.552 37.53 103.811 35.199 104.181 30.833C104.44 27.281 104.81 23.766 105.328 20.251C105.513 19.104 105.587 17.994 105.587 16.884L105.55 15.737C105.476 14.405 104.551 13.221 103.552 13.221C102.331 13.221 101.702 14.923 101.221 16.477C99.3711 22.36 99.2231 28.65 98.6681 35.569C98.4461 35.458 98.4461 35.31 98.4091 35.162C97.5211 31.943 96.7441 28.687 96.1521 25.357C95.7451 23.211 95.2271 21.065 94.7461 18.919C94.2281 16.662 93.6361 13.221 91.7121 13.221C90.7501 13.221 90.4541 13.85 89.8991 14.96C88.3081 18.882 87.7901 23.655 87.4571 27.54C87.1981 30.389 87.0131 33.201 86.7911 36.05C86.6431 37.863 86.5321 39.676 86.5321 41.489C86.5321 44.079 86.6801 46.928 87.5311 49.444C87.9381 50.591 89.0851 51.072 90.1951 51.072C91.4161 51.072 92.6741 50.554 92.6741 49.518C92.6741 48.852 92.1931 47.89 92.0081 46.928C91.6751 44.893 91.6381 43.598 91.6381 41.563C91.6381 37.604 92.0821 32.905 92.4891 28.761H92.6001C93.8211 34.496 95.3751 39.454 97.3731 45.078C98.3351 47.853 99.4081 51.109 102.109 51.109Z" fill="#2E4960"/>
<path d="M109.996 51.22C111.217 51.22 112.401 50.628 112.401 49.592C112.401 48.852 111.92 47.927 111.772 46.965C111.476 45.411 111.365 43.82 111.365 42.266C111.365 39.676 111.55 37.086 111.772 34.496C111.994 31.869 112.142 29.279 112.438 26.652C112.771 23.507 113.474 20.214 113.474 17.106L113.4 15.7C113.326 14.405 112.401 13.369 111.439 13.369C110.292 13.369 109.7 14.849 109.256 16.181C107.591 21.25 107.258 27.022 106.851 32.313C106.592 35.014 106.407 37.678 106.333 39.972V43.561C106.333 45.633 106.666 47.742 107.295 49.555C107.665 50.702 108.812 51.22 109.996 51.22Z" fill="#2E4960"/>
<path d="M134.708 51.072C135.892 51.072 137.187 50.517 137.187 49.481C137.187 49.296 137.113 49.074 137.039 48.815C136.262 46.706 136.114 44.153 136.114 41.859C136.114 37.271 136.706 32.128 137.076 27.799C137.298 25.209 137.631 22.656 137.964 20.103C138.112 18.993 138.223 17.883 138.223 16.773L138.186 15.885C138.112 14.442 137.298 13.258 136.188 13.258C134.856 13.258 133.672 15.108 132.784 16.366C131.452 18.327 130.49 20.436 129.454 22.508C128.233 24.913 127.234 27.429 126.198 29.908C126.087 30.13 126.013 30.389 125.754 30.648C124.866 26.985 124.496 24.432 123.312 20.436C122.794 18.734 122.35 16.958 121.573 15.33C121.314 14.812 121.092 14.294 120.685 13.887C120.241 13.443 119.797 13.221 119.353 13.221C118.095 13.221 117.355 15.108 116.948 16.736C115.838 20.547 115.394 24.432 115.061 28.354L114.506 34.94C114.321 37.16 114.21 39.343 114.21 41.563L114.284 44.486C114.395 46.151 114.617 47.779 115.172 49.333C115.579 50.591 116.689 51.072 117.873 51.072C119.094 51.072 120.315 50.517 120.315 49.518C120.315 49.259 120.278 49.037 120.167 48.741C119.39 46.558 119.279 43.931 119.279 41.711C119.279 39.861 119.39 38.048 119.538 36.235C119.723 33.312 119.982 30.389 120.241 27.503C120.315 26.763 120.278 25.986 120.574 25.172C121.499 29.797 122.498 33.793 122.905 37.678C123.016 38.862 123.275 40.564 124.496 40.712L124.903 40.749C125.643 40.749 126.383 40.305 126.753 39.528C127.752 37.308 128.27 34.903 129.38 32.461L131.711 26.837C131.785 26.689 131.822 26.504 132.044 26.356L131.267 36.087C131.119 37.974 131.045 39.861 131.045 41.748C131.045 44.264 131.156 46.928 132.044 49.481C132.451 50.665 133.672 51.072 134.708 51.072Z" fill="#2E4960"/>
<path d="M140.737 22.471C141.403 22.471 142.032 22.212 142.513 21.657C142.92 21.176 143.216 20.584 143.438 19.992C143.771 19.067 143.919 18.068 143.993 17.032C143.993 16.773 143.993 16.514 143.956 16.255C143.882 15.626 143.993 14.997 143.586 14.479C142.994 13.665 142.217 13.332 141.366 13.332L140.959 13.369C139.96 13.517 139.516 14.257 139.257 15.108C139.035 15.737 138.961 16.366 138.961 16.995L138.998 17.735C139.146 18.734 139.479 19.585 140.515 19.955C140.7 20.029 140.774 20.103 140.774 20.177C140.774 20.288 140.7 20.362 140.663 20.473C140.441 20.88 140.071 21.102 139.627 21.25C139.368 21.361 139.22 21.509 139.22 21.657C139.22 21.805 139.331 21.953 139.516 22.101C139.627 22.212 139.775 22.249 139.923 22.323C140.182 22.434 140.441 22.471 140.737 22.471Z" fill="#2E4960"/>
<path d="M155.712 32.276H150.532C150.384 32.276 150.236 32.276 150.014 32.165C151.679 26.8 153.381 21.509 157.303 17.143C157.562 17.624 157.562 17.957 157.599 18.327C157.71 19.215 157.784 20.103 157.784 20.991C157.784 22.212 157.673 23.433 157.562 24.691L157.007 31.018C156.896 32.239 156.933 32.239 155.712 32.276ZM160.078 51.109C161.299 51.109 162.52 50.554 162.52 49.518C162.52 48.704 161.965 47.668 161.78 46.558C161.558 45.004 161.484 43.45 161.484 41.859C161.558 36.272 161.965 32.831 162.446 27.096C162.594 25.616 162.668 24.136 162.668 22.693C162.668 21.546 162.631 20.436 162.483 19.326C162.335 17.994 162.039 16.699 161.262 15.589C160.337 14.22 159.005 13.517 157.599 13.517C156.526 13.517 155.453 13.924 154.491 14.812C154.343 14.923 154.232 15.034 154.121 15.182C153.418 15.922 152.826 16.736 152.271 17.587C147.387 25.172 145.019 35.014 143.687 43.598C143.465 45.152 143.243 46.706 143.243 48.297C143.28 49.74 143.576 51.072 144.871 51.072C145.537 51.035 145.759 50.887 145.907 49.962L145.944 49.888C146.647 45.559 147.72 40.601 148.83 36.272C148.941 35.939 149.015 35.791 149.422 35.791H155.934C156.489 35.791 156.6 35.791 156.6 36.161C156.526 37.567 156.452 38.751 156.452 40.12V44.523C156.526 46.188 156.785 47.816 157.34 49.407C157.747 50.628 158.894 51.109 160.078 51.109Z" fill="#2E4960"/>
<path d="M166.809 52.515C167.882 52.441 168.548 52.404 169.177 51.59C169.436 51.257 169.732 51.22 170.139 51.22H176.614C177.798 51.22 178.982 51.22 180.129 51.109C181.054 51.072 181.461 50.554 181.461 49.666C181.387 48.445 180.018 47.002 178.797 46.928C178.094 46.891 177.391 46.854 176.688 46.854L171.249 46.965C170.879 46.965 170.768 46.928 170.768 46.743C170.916 45.485 171.175 44.412 171.286 43.154C172.1 34.866 172.655 27.54 173.765 19.141C173.839 18.401 173.876 17.661 173.876 16.958L173.839 15.737C173.728 14.442 172.877 13.369 171.804 13.369C171.323 13.369 170.879 13.628 170.546 14.109C170.25 14.627 170.028 15.182 169.806 15.737C168.326 19.77 167.882 24.654 167.512 28.983C167.29 31.684 166.957 34.385 166.735 37.086C166.476 40.157 166.18 43.191 165.662 46.188C165.551 46.928 165.551 46.928 164.811 47.113C163.516 47.409 163.183 48.112 163.035 49.481C163.035 51.294 164.885 52.515 166.809 52.515Z" fill="#2E4960"/>
<path d="M185.237 52.515C186.31 52.441 186.976 52.404 187.605 51.59C187.864 51.257 188.16 51.22 188.567 51.22H195.042C196.226 51.22 197.41 51.22 198.557 51.109C199.482 51.072 199.889 50.554 199.889 49.666C199.815 48.445 198.446 47.002 197.225 46.928C196.522 46.891 195.819 46.854 195.116 46.854L189.677 46.965C189.307 46.965 189.196 46.928 189.196 46.743C189.344 45.485 189.603 44.412 189.714 43.154C190.528 34.866 191.083 27.54 192.193 19.141C192.267 18.401 192.304 17.661 192.304 16.958L192.267 15.737C192.156 14.442 191.305 13.369 190.232 13.369C189.751 13.369 189.307 13.628 188.974 14.109C188.678 14.627 188.456 15.182 188.234 15.737C186.754 19.77 186.31 24.654 185.94 28.983C185.718 31.684 185.385 34.385 185.163 37.086C184.904 40.157 184.608 43.191 184.09 46.188C183.979 46.928 183.979 46.928 183.239 47.113C181.944 47.409 181.611 48.112 181.463 49.481C181.463 51.294 183.313 52.515 185.237 52.515Z" fill="#2E4960"/>
<path d="M42.687 46.6431L44.4709 48.4187L46.5635 50.4902L47.3639 51.2983L51.5377 47.1439L46.8722 42.4888L42.687 46.6431Z" fill="#F9B545"/>
<path d="M55.6085 47.1553L69.6278 61.1095C71.9033 63.3744 71.9033 67.0394 69.6278 69.3044C67.3522 71.5694 63.6701 71.5694 61.3946 69.3044L47.3752 55.3502L55.6085 47.1553Z" fill="#FFF8F0"/>
<path d="M53.6301 48.8284L54.7736 47.6675L68.9073 61.9289C70.7484 63.807 70.7484 66.8004 68.9073 68.6784C68.7587 68.8263 68.5528 68.9174 68.3356 68.9174C68.1183 68.9174 67.9125 68.8263 67.7638 68.6784C67.4436 68.3597 67.4436 67.8475 67.7638 67.5174C68.9759 66.2882 68.9759 64.3078 67.7638 63.0785L53.6301 48.8284Z" fill="#DDDDDD"/>
<path d="M47.2153 55.2364L55.5056 46.9846L54.8882 46.3699C54.0877 45.5732 52.7841 45.5732 51.9837 46.3699L46.5978 51.7308C45.7973 52.5275 45.7973 53.8137 46.5978 54.6104L47.2153 55.2364Z" fill="#F9B545"/>
<path d="M0 26.3604C0 11.803 11.8695 0 26.4949 0C41.1203 0 52.9899 11.8144 52.9899 26.3718C52.9899 40.9291 41.1317 52.7435 26.4949 52.7435C11.8581 52.7435 0 40.9291 0 26.3604C0 26.3604 0 26.3718 0 26.3604Z" fill="#F9B545"/>
<path d="M26.552 49.7504C39.4965 49.7504 49.9824 39.3132 49.9824 26.429C49.9824 13.5447 39.4965 3.10754 26.552 3.10754C13.619 3.10754 3.1217 13.5447 3.1217 26.429C3.1217 39.3018 13.6076 49.7504 26.552 49.7504Z" fill="#B78635"/>
<path d="M26.5522 48.1911C38.6276 48.1911 48.416 38.4482 48.416 26.429C48.416 14.4097 38.6276 4.65549 26.5522 4.65549C14.4768 4.65549 4.68848 14.4097 4.68848 26.429C4.68848 38.4482 14.4768 48.1911 26.5522 48.1911Z" fill="#CEE2F2"/>
<path d="M41.1318 14.091C37.2782 15.5706 33.7562 17.7673 30.7374 20.5673C29.9369 20.2714 29.0793 20.112 28.2217 20.112H25.5802C24.7225 20.112 23.8649 20.2714 23.0645 20.5673C20.0456 17.7673 16.5236 15.5706 12.67 14.091C11.8124 13.7723 10.8519 14.2048 10.5317 15.0585C10.4173 15.343 10.3945 15.6503 10.4516 15.9462C11.1835 19.6681 12.5785 23.242 14.5682 26.4745C15.403 27.8517 16.6608 28.9216 18.1474 29.5362L16.9696 40.1896C16.9696 43.2741 21.4178 45.7667 26.9066 45.7667C32.3954 45.7667 36.8437 43.2741 36.8437 40.1896L35.6658 29.5362C37.1524 28.9216 38.4102 27.8517 39.245 26.4745C41.2347 23.242 42.6298 19.6681 43.3616 15.9462C43.5331 15.0471 42.9271 14.1821 42.0237 14.0113C41.7264 13.9544 41.4177 13.9886 41.1432 14.091H41.1318Z" fill="#DEC4A7"/>
<path d="M36.8322 40.1896L36.0089 32.7686L32.5326 32.0857C30.3943 31.6646 28.6447 30.1622 27.9014 28.1248L26.8952 25.3363L25.8889 28.1248C25.1456 30.1622 23.396 31.6646 21.2577 32.0857L17.7815 32.7686L16.9581 40.1896C16.9581 43.2741 21.4064 45.7667 26.8952 45.7667C32.384 45.7667 36.8322 43.2627 36.8322 40.1896Z" fill="#F3E8D4"/>
<path d="M31.2976 33.2808C31.0003 33.2808 30.7602 33.5198 30.7602 33.8158C30.7602 34.7263 30.0169 35.4775 29.1021 35.4775C28.3131 35.4775 27.6384 34.9312 27.4669 34.1572C27.5355 34.1117 27.5812 34.0548 27.6384 33.9979L28.8963 32.393C29.2164 31.9833 29.1364 31.4028 28.7362 31.0841C28.5761 30.9589 28.3702 30.8906 28.1644 30.8906H25.6487C25.1341 30.8906 24.711 31.3118 24.711 31.8239C24.711 32.0288 24.7797 32.2337 24.9054 32.393L26.1633 33.9979C26.209 34.0548 26.2662 34.1117 26.3234 34.1572C26.1404 35.0564 25.2599 35.6255 24.3566 35.4434C23.579 35.284 23.0301 34.6011 23.0301 33.8158C23.0301 33.5198 22.79 33.2808 22.4926 33.2808C22.1953 33.2808 21.9552 33.5198 21.9552 33.8158C21.9552 35.3182 23.1787 36.536 24.6882 36.5474C25.5572 36.5474 26.3806 36.1377 26.8951 35.432C27.7871 36.6498 29.5023 36.9116 30.7144 36.0125C31.4234 35.5003 31.8351 34.6808 31.8351 33.8158C31.8351 33.5085 31.5949 33.2694 31.2976 33.2808Z" fill="#2B1716"/>
<path d="M31.1374 26.7932C30.4513 26.7932 29.891 27.3509 29.891 28.0338V28.9102C29.9139 29.5931 30.4856 30.1394 31.1831 30.1167C31.8464 30.0939 32.3724 29.5703 32.3953 28.9102V28.0338C32.3838 27.3395 31.8235 26.7932 31.1374 26.7932Z" fill="#2B1716"/>
<path d="M22.6527 26.7932C21.9666 26.7932 21.3949 27.3395 21.3949 28.0338V28.9102C21.4178 29.5931 21.9895 30.1394 22.6871 30.1167C23.3503 30.0939 23.8763 29.5703 23.8992 28.9102V28.0338C23.8877 27.3509 23.3389 26.7932 22.6527 26.7932Z" fill="#2B1716"/>
<path d="M13.8707 13.6358C13.7678 13.4764 13.6305 13.3398 13.4933 13.226C12.6814 12.5659 11.4693 12.6797 10.8061 13.4992L10.7946 13.5106C6.42647 18.86 5.34015 26.1786 7.95876 32.5638C8.39329 33.5313 9.52536 33.9638 10.4973 33.5313C11.4236 33.1215 11.8695 32.063 11.5151 31.1183C9.43388 26.0078 10.3029 20.1917 13.7792 15.9008C14.3052 15.252 14.3395 14.3301 13.8707 13.6358Z" fill="white"/>
<path d="M26.1747 7.36435C25.7973 6.80664 25.1455 6.47657 24.4709 6.51072C21.4978 6.68144 18.6161 7.54646 16.0433 9.02611C15.1285 9.54967 14.8197 10.722 15.3457 11.6325C15.8717 12.5431 17.0495 12.8504 17.9644 12.3268C20.0227 11.1431 22.3211 10.4602 24.6881 10.3236C25.7402 10.2667 26.5406 9.37894 26.4834 8.33181V8.32043C26.4834 7.97897 26.3691 7.6489 26.1747 7.36435Z" fill="white"/>
</svg>
