<svg width="202" height="72" viewBox="0 0 202 72" fill="none" xmlns="http://www.w3.org/2000/svg">
<path d="M72.753 36.266H67.293C67.137 36.266 66.981 36.266 66.747 36.149C68.502 30.494 70.296 24.917 74.43 20.315C74.703 20.822 74.703 21.173 74.742 21.563C74.859 22.499 74.937 23.435 74.937 24.371C74.937 25.658 74.82 26.945 74.703 28.271L74.118 34.94C74.001 36.227 74.04 36.227 72.753 36.266ZM77.355 56.117C78.642 56.117 79.929 55.532 79.929 54.44C79.929 53.582 79.344 52.49 79.149 51.32C78.915 49.682 78.837 48.044 78.837 46.367C78.915 40.478 79.344 36.851 79.851 30.806C80.007 29.246 80.085 27.686 80.085 26.165C80.085 24.956 80.046 23.786 79.89 22.616C79.734 21.212 79.422 19.847 78.603 18.677C77.628 17.234 76.224 16.493 74.742 16.493C73.611 16.493 72.48 16.922 71.466 17.858C71.31 17.975 71.193 18.092 71.076 18.248C70.335 19.028 69.711 19.886 69.126 20.783C63.978 28.778 61.482 39.152 60.078 48.2C59.844 49.838 59.61 51.476 59.61 53.153C59.649 54.674 59.961 56.078 61.326 56.078C62.028 56.039 62.262 55.883 62.418 54.908L62.457 54.83C63.198 50.267 64.329 45.041 65.499 40.478C65.616 40.127 65.694 39.971 66.123 39.971H72.987C73.572 39.971 73.689 39.971 73.689 40.361C73.611 41.843 73.533 43.091 73.533 44.534V49.175C73.611 50.93 73.884 52.646 74.469 54.323C74.898 55.61 76.107 56.117 77.355 56.117Z" fill="#FFF8F0"/>
<path d="M98.061 56.117C99.348 56.117 100.635 55.493 100.635 54.44C100.635 53.66 100.089 52.646 99.933 51.671C99.621 49.838 99.504 47.966 99.504 46.094C99.582 41.804 99.855 39.347 100.245 34.745C100.518 31.001 100.908 27.296 101.454 23.591C101.649 22.382 101.727 21.212 101.727 20.042L101.688 18.833C101.61 17.429 100.635 16.181 99.582 16.181C98.295 16.181 97.632 17.975 97.125 19.613C95.175 25.814 95.019 32.444 94.434 39.737C94.2 39.62 94.2 39.464 94.161 39.308C93.225 35.915 92.406 32.483 91.782 28.973C91.353 26.711 90.8069 24.449 90.2999 22.187C89.7539 19.808 89.13 16.181 87.102 16.181C86.088 16.181 85.776 16.844 85.191 18.014C83.514 22.148 82.968 27.179 82.617 31.274C82.344 34.277 82.149 37.241 81.915 40.244C81.759 42.155 81.642 44.066 81.642 45.977C81.642 48.707 81.798 51.71 82.695 54.362C83.124 55.571 84.333 56.078 85.503 56.078C86.79 56.078 88.116 55.532 88.116 54.44C88.116 53.738 87.609 52.724 87.414 51.71C87.063 49.565 87.024 48.2 87.024 46.055C87.024 41.882 87.492 36.929 87.921 32.561H88.038C89.325 38.606 90.963 43.832 93.069 49.76C94.083 52.685 95.214 56.117 98.061 56.117Z" fill="#FFF8F0"/>
<path d="M106.374 56.234C107.661 56.234 108.909 55.61 108.909 54.518C108.909 53.738 108.402 52.763 108.246 51.749C107.934 50.111 107.817 48.434 107.817 46.796C107.817 44.066 108.012 41.336 108.246 38.606C108.48 35.837 108.636 33.107 108.948 30.338C109.299 27.023 110.04 23.552 110.04 20.276L109.962 18.794C109.884 17.429 108.909 16.337 107.895 16.337C106.686 16.337 106.062 17.897 105.594 19.301C103.839 24.644 103.488 30.728 103.059 36.305C102.786 39.152 102.591 41.96 102.513 44.378V48.161C102.513 50.345 102.864 52.568 103.527 54.479C103.917 55.688 105.126 56.234 106.374 56.234Z" fill="#FFF8F0"/>
<path d="M132.422 56.078C133.67 56.078 135.035 55.493 135.035 54.401C135.035 54.206 134.957 53.972 134.879 53.699C134.06 51.476 133.904 48.785 133.904 46.367C133.904 41.531 134.528 36.11 134.918 31.547C135.152 28.817 135.503 26.126 135.854 23.435C136.01 22.265 136.127 21.095 136.127 19.925L136.088 18.989C136.01 17.468 135.152 16.22 133.982 16.22C132.578 16.22 131.33 18.17 130.394 19.496C128.99 21.563 127.976 23.786 126.884 25.97C125.597 28.505 124.544 31.157 123.452 33.77C123.335 34.004 123.257 34.277 122.984 34.55C122.048 30.689 121.658 27.998 120.41 23.786C119.864 21.992 119.396 20.12 118.577 18.404C118.304 17.858 118.07 17.312 117.641 16.883C117.173 16.415 116.705 16.181 116.237 16.181C114.911 16.181 114.131 18.17 113.702 19.886C112.532 23.903 112.064 27.998 111.713 32.132L111.128 39.074C110.933 41.414 110.816 43.715 110.816 46.055L110.894 49.136C111.011 50.891 111.245 52.607 111.83 54.245C112.259 55.571 113.429 56.078 114.677 56.078C115.964 56.078 117.251 55.493 117.251 54.44C117.251 54.167 117.212 53.933 117.095 53.621C116.276 51.32 116.159 48.551 116.159 46.211C116.159 44.261 116.276 42.35 116.432 40.439C116.627 37.358 116.9 34.277 117.173 31.235C117.251 30.455 117.212 29.636 117.524 28.778C118.499 33.653 119.552 37.865 119.981 41.96C120.098 43.208 120.371 45.002 121.658 45.158L122.087 45.197C122.867 45.197 123.647 44.729 124.037 43.91C125.09 41.57 125.636 39.035 126.806 36.461L129.263 30.533C129.341 30.377 129.38 30.182 129.614 30.026L128.795 40.283C128.639 42.272 128.561 44.261 128.561 46.25C128.561 48.902 128.678 51.71 129.614 54.401C130.043 55.649 131.33 56.078 132.422 56.078Z" fill="#FFF8F0"/>
<path d="M138.777 25.931C139.479 25.931 140.142 25.658 140.649 25.073C141.078 24.566 141.39 23.942 141.624 23.318C141.975 22.343 142.131 21.29 142.209 20.198C142.209 19.925 142.209 19.652 142.17 19.379C142.092 18.716 142.209 18.053 141.78 17.507C141.156 16.649 140.337 16.298 139.44 16.298L139.011 16.337C137.958 16.493 137.49 17.273 137.217 18.17C136.983 18.833 136.905 19.496 136.905 20.159L136.944 20.939C137.1 21.992 137.451 22.889 138.543 23.279C138.738 23.357 138.816 23.435 138.816 23.513C138.816 23.63 138.738 23.708 138.699 23.825C138.465 24.254 138.075 24.488 137.607 24.644C137.334 24.761 137.178 24.917 137.178 25.073C137.178 25.229 137.295 25.385 137.49 25.541C137.607 25.658 137.763 25.697 137.919 25.775C138.192 25.892 138.465 25.931 138.777 25.931Z" fill="#FFF8F0"/>
<path d="M154.562 36.266H149.102C148.946 36.266 148.79 36.266 148.556 36.149C150.311 30.494 152.105 24.917 156.239 20.315C156.512 20.822 156.512 21.173 156.551 21.563C156.668 22.499 156.746 23.435 156.746 24.371C156.746 25.658 156.629 26.945 156.512 28.271L155.927 34.94C155.81 36.227 155.849 36.227 154.562 36.266ZM159.164 56.117C160.451 56.117 161.738 55.532 161.738 54.44C161.738 53.582 161.153 52.49 160.958 51.32C160.724 49.682 160.646 48.044 160.646 46.367C160.724 40.478 161.153 36.851 161.66 30.806C161.816 29.246 161.894 27.686 161.894 26.165C161.894 24.956 161.855 23.786 161.699 22.616C161.543 21.212 161.231 19.847 160.412 18.677C159.437 17.234 158.033 16.493 156.551 16.493C155.42 16.493 154.289 16.922 153.275 17.858C153.119 17.975 153.002 18.092 152.885 18.248C152.144 19.028 151.52 19.886 150.935 20.783C145.787 28.778 143.291 39.152 141.887 48.2C141.653 49.838 141.419 51.476 141.419 53.153C141.458 54.674 141.77 56.078 143.135 56.078C143.837 56.039 144.071 55.883 144.227 54.908L144.266 54.83C145.007 50.267 146.138 45.041 147.308 40.478C147.425 40.127 147.503 39.971 147.932 39.971H154.796C155.381 39.971 155.498 39.971 155.498 40.361C155.42 41.843 155.342 43.091 155.342 44.534V49.175C155.42 50.93 155.693 52.646 156.278 54.323C156.707 55.61 157.916 56.117 159.164 56.117Z" fill="#FFF8F0"/>
<path d="M166.259 57.599C167.39 57.521 168.092 57.482 168.755 56.624C169.028 56.273 169.34 56.234 169.769 56.234H176.594C177.842 56.234 179.09 56.234 180.299 56.117C181.274 56.078 181.703 55.532 181.703 54.596C181.625 53.309 180.182 51.788 178.895 51.71C178.154 51.671 177.413 51.632 176.672 51.632L170.939 51.749C170.549 51.749 170.432 51.71 170.432 51.515C170.588 50.189 170.861 49.058 170.978 47.732C171.836 38.996 172.421 31.274 173.591 22.421C173.669 21.641 173.708 20.861 173.708 20.12L173.669 18.833C173.552 17.468 172.655 16.337 171.524 16.337C171.017 16.337 170.549 16.61 170.198 17.117C169.886 17.663 169.652 18.248 169.418 18.833C167.858 23.084 167.39 28.232 167 32.795C166.766 35.642 166.415 38.489 166.181 41.336C165.908 44.573 165.596 47.771 165.05 50.93C164.933 51.71 164.933 51.71 164.153 51.905C162.788 52.217 162.437 52.958 162.281 54.401C162.281 56.312 164.231 57.599 166.259 57.599Z" fill="#FFF8F0"/>
<path d="M185.682 57.599C186.813 57.521 187.515 57.482 188.178 56.624C188.451 56.273 188.763 56.234 189.192 56.234H196.017C197.265 56.234 198.513 56.234 199.722 56.117C200.697 56.078 201.126 55.532 201.126 54.596C201.048 53.309 199.605 51.788 198.318 51.71C197.577 51.671 196.836 51.632 196.095 51.632L190.362 51.749C189.972 51.749 189.855 51.71 189.855 51.515C190.011 50.189 190.284 49.058 190.401 47.732C191.259 38.996 191.844 31.274 193.014 22.421C193.092 21.641 193.131 20.861 193.131 20.12L193.092 18.833C192.975 17.468 192.078 16.337 190.947 16.337C190.44 16.337 189.972 16.61 189.621 17.117C189.309 17.663 189.075 18.248 188.841 18.833C187.281 23.084 186.813 28.232 186.423 32.795C186.189 35.642 185.838 38.489 185.604 41.336C185.331 44.573 185.019 47.771 184.473 50.93C184.356 51.71 184.356 51.71 183.576 51.905C182.211 52.217 181.86 52.958 181.704 54.401C181.704 56.312 183.654 57.599 185.682 57.599Z" fill="#FFF8F0"/>
<path d="M43.2881 47.302L45.0971 49.1026L47.2192 51.2033L48.0309 52.0227L52.2635 47.8099L47.5323 43.0891L43.2881 47.302Z" fill="#5D6D7E"/>
<path d="M56.3916 47.8214L70.6084 61.9721C72.916 64.269 72.916 67.9856 70.6084 70.2825C68.3008 72.5794 64.5669 72.5794 62.2593 70.2825L48.0425 56.1318L56.3916 47.8214Z" fill="#FF9F00"/>
<path d="M54.3856 49.5181L55.5452 48.3408L69.878 62.8032C71.7449 64.7076 71.7449 67.7432 69.878 69.6477C69.7272 69.7977 69.5185 69.89 69.2982 69.89C69.0778 69.89 68.8691 69.7977 68.7184 69.6477C68.3937 69.3245 68.3937 68.8051 68.7184 68.4704C69.9475 67.2238 69.9475 65.2155 68.7184 63.9689L54.3856 49.5181Z" fill="#DDDDDD"/>
<path d="M47.8801 56.0164L56.2873 47.6483L55.6611 47.025C54.8494 46.2171 53.5274 46.2171 52.7157 47.025L47.2539 52.4614C46.4422 53.2693 46.4422 54.5736 47.2539 55.3816L47.8801 56.0164Z" fill="#34495E"/>
<path d="M0 26.7336C0 11.9712 12.0367 0.00195312 26.8681 0.00195312C41.6995 0.00195312 53.7362 11.9827 53.7362 26.7451C53.7362 41.5076 41.7111 53.4883 26.8681 53.4883C12.0251 53.4883 0 41.5076 0 26.7336Z" fill="#34495E"/>
<path d="M26.9261 50.4531C40.0529 50.4531 50.6865 39.8689 50.6865 26.8032C50.6865 13.7375 40.0529 3.15332 26.9261 3.15332C13.811 3.15332 3.1658 13.7375 3.1658 26.8032C3.1658 39.8574 13.7994 50.4531 26.9261 50.4531Z" fill="#5D6D7E"/>
<path d="M26.926 48.8718C39.1715 48.8718 49.0977 38.9917 49.0977 26.8032C49.0977 14.6147 39.1715 4.72302 26.926 4.72302C14.6806 4.72302 4.75433 14.6147 4.75433 26.8032C4.75433 38.9917 14.6806 48.8718 26.926 48.8718Z" fill="#CEE2F2"/>
<path d="M41.711 14.2915C37.8031 15.7919 34.2316 18.0196 31.1702 20.8589C30.3585 20.5589 29.4888 20.3973 28.6191 20.3973H25.9404C25.0707 20.3973 24.2009 20.5589 23.3892 20.8589C20.3279 18.0196 16.7563 15.7919 12.8484 14.2915C11.9787 13.9683 11.0046 14.4069 10.6799 15.2725C10.564 15.5611 10.5408 15.8727 10.5988 16.1728C11.3409 19.9471 12.7556 23.5714 14.7733 26.8493C15.6199 28.2459 16.8954 29.3309 18.4029 29.9542L17.2085 40.7576C17.2085 43.8856 21.7194 46.4133 27.2855 46.4133C32.8516 46.4133 37.3625 43.8856 37.3625 40.7576L36.1681 29.9542C37.6756 29.3309 38.9512 28.2459 39.7977 26.8493C41.8154 23.5714 43.2301 19.9471 43.9722 16.1728C44.1462 15.261 43.5316 14.3838 42.6155 14.2107C42.314 14.153 42.0009 14.1876 41.7226 14.2915H41.711Z" fill="#DEC4A7"/>
<path d="M37.351 40.7576L36.516 33.2321L32.9908 32.5396C30.8224 32.1125 29.0482 30.5889 28.2944 28.5229L27.274 25.6951L26.2535 28.5229C25.4998 30.5889 23.7256 32.1125 21.5571 32.5396L18.0319 33.2321L17.197 40.7576C17.197 43.8855 21.7079 46.4132 27.274 46.4132C32.8401 46.4132 37.351 43.874 37.351 40.7576Z" fill="#F3E8D4"/>
<path d="M22.9718 27.1725C22.276 27.1725 21.6962 27.7265 21.6962 28.4306V29.3193C21.7194 30.0119 22.2992 30.5659 23.0066 30.5428C23.6792 30.5197 24.2126 29.9888 24.2358 29.3193V28.4306C24.2242 27.7381 23.6676 27.1725 22.9718 27.1725Z" fill="#2B1716"/>
<path d="M31.576 27.1725C30.8803 27.1725 30.3121 27.7381 30.3121 28.4306V29.3193C30.3353 30.0119 30.9151 30.5659 31.6224 30.5428C32.295 30.5197 32.8284 29.9888 32.8516 29.3193V28.4306C32.84 27.7265 32.2718 27.1725 31.576 27.1725Z" fill="#2B1716"/>
<path d="M31.7385 33.7515C31.437 33.7515 31.1935 33.9939 31.1935 34.294C31.1935 35.2173 30.4397 35.9791 29.512 35.9791C28.7119 35.9791 28.0277 35.4251 27.8538 34.6402C27.9234 34.5941 27.9698 34.5364 28.0277 34.4786L29.3033 32.8512C29.628 32.4357 29.5468 31.847 29.141 31.5239C28.9786 31.3969 28.7699 31.3276 28.5612 31.3276H26.01C25.4882 31.3276 25.0591 31.7547 25.0591 32.2741C25.0591 32.4819 25.1287 32.6896 25.2563 32.8512L26.5318 34.4786C26.5782 34.5364 26.6362 34.5941 26.6942 34.6402C26.5087 35.5521 25.6158 36.1292 24.6997 35.9445C23.9111 35.7829 23.3545 35.0904 23.3545 34.294C23.3545 33.9939 23.111 33.7515 22.8095 33.7515C22.508 33.7515 22.2645 33.9939 22.2645 34.294C22.2645 35.8175 23.5053 37.0525 25.036 37.0641C25.9173 37.0641 26.7522 36.6486 27.274 35.933C28.1785 37.168 29.9179 37.4334 31.1471 36.5216C31.866 36.0022 32.2835 35.1712 32.2835 34.294C32.2835 33.9823 32.04 33.7399 31.7385 33.7515Z" fill="#2B1716"/>
<path d="M26.5435 7.47004C26.1608 6.90447 25.4998 6.56975 24.8157 6.60438C21.8007 6.77751 18.8785 7.65471 16.2693 9.1552C15.3417 9.68613 15.0286 10.875 15.562 11.7984C16.0954 12.7217 17.2898 13.0334 18.2175 12.5024C20.3048 11.302 22.6356 10.6095 25.036 10.471C26.1028 10.4133 26.9145 9.513 26.8566 8.45112V8.43958C26.8566 8.09332 26.7406 7.75859 26.5435 7.47004Z" fill="white"/>
<path d="M14.0661 13.8298C13.9617 13.6682 13.8226 13.5297 13.6834 13.4142C12.8601 12.7448 11.6309 12.8602 10.9583 13.6913L10.9467 13.7028C6.51703 19.1276 5.4154 26.5492 8.0709 33.0244C8.51155 34.0055 9.65956 34.4441 10.6452 34.0055C11.5845 33.5899 12.0368 32.5165 11.6773 31.5585C9.5668 26.3761 10.4481 20.478 13.9733 16.1267C14.5067 15.4688 14.5415 14.5338 14.0661 13.8298Z" fill="white"/>
</svg>
