<?xml version="1.0" encoding="utf-8"?><svg viewBox="0 0 81 80" xmlns="http://www.w3.org/2000/svg" xmlns:xlink="http://www.w3.org/1999/xlink"><style>:root>svg{display:none}:root>svg:target{display:block}</style><svg fill="none" viewBox="0 0 79 78" id="api" xmlns="http://www.w3.org/2000/svg"><path d="M40.888 70h20v2.5h-20V70zM58.388 65h2.5v2.5h-2.5V65zM40.888 65h15v2.5h-15V65zM30.888 65h-7.5a2.503 2.503 0 00-2.5 2.5V70c0 1.379 1.121 2.5 2.5 2.5h7.5c1.379 0 2.5-1.121 2.5-2.5v-2.5c0-1.379-1.121-2.5-2.5-2.5zm-7.5 5v-2.5h7.5l.001 2.5h-7.501zM15.888 65h-7.5a2.502 2.502 0 00-2.5 2.5V70c0 1.379 1.121 2.5 2.5 2.5h7.5c1.379 0 2.5-1.121 2.5-2.5v-2.5c0-1.379-1.121-2.5-2.5-2.5zm-7.5 5v-2.5h7.5l.001 2.5H8.388zM40.888 60h20v2.5h-20V60zM29.638 45h2.5v12.5h-2.5V60h7.5v-2.5h-2.5V45h2.5v-2.5h-7.5V45zM20.888 52.5h2.5c2.757 0 5-2.242 5-5s-2.243-5-5-5h-5V60h2.5v-7.5zm0-7.5h2.5c1.379 0 2.5 1.121 2.5 2.5s-1.121 2.5-2.5 2.5h-2.5v-5zM8.388 55h5v5h2.5V47.5c0-2.758-2.243-5-5-5-2.758 0-5 2.242-5 5V60h2.5v-5zm2.5-10c1.379 0 2.5 1.121 2.5 2.5v5h-5v-5c0-1.379 1.121-2.5 2.5-2.5zM40.888 57.5h20v-20h-20v20zm2.5-17.5h15v15h-15V40zM15.888 30h2.5v2.5h-2.5V30zM10.888 30h2.5v2.5h-2.5V30zM5.888 30h2.5v2.5h-2.5V30z" fill="currentColor"/><path d="M78.388 18.75C78.388 8.411 69.977 0 59.638 0c-7.179 0-13.421 4.06-16.57 10H32.655l-2.5-2.5h-9.497C20.14 6.049 18.765 5 17.138 5a3.755 3.755 0 00-3.75 3.75 3.755 3.755 0 003.75 3.75c1.627 0 3.002-1.049 3.52-2.5h8.462l2.5 2.5h10.362a18.64 18.64 0 00-1.094 6.25c0 .42.041.834.07 1.25h-3.301l-2.5-2.5h-9.498c-.517-1.451-1.892-2.5-3.52-2.5a3.755 3.755 0 00-3.75 3.75 3.755 3.755 0 003.75 3.75c1.628 0 3.003-1.049 3.52-2.5h8.463l2.5 2.5h4.666c.175.845.401 1.68.695 2.5H4.638a3.755 3.755 0 00-3.75 3.75v45a3.755 3.755 0 003.75 3.75h57.5a3.755 3.755 0 003.75-3.75V36.406c7.401-2.625 12.5-9.745 12.5-17.656zM17.138 10c-.689 0-1.25-.561-1.25-1.25s.561-1.25 1.25-1.25 1.25.561 1.25 1.25-.561 1.25-1.25 1.25zm5 10c-.689 0-1.25-.561-1.25-1.25s.561-1.25 1.25-1.25 1.25.561 1.25 1.25-.561 1.25-1.25 1.25zm31.771 5a36.338 36.338 0 01-.492-5h12.43c-.07 2.27-.32 4.457-.762 6.459A3.733 3.733 0 0062.138 25h-8.229zm-10.457-7.5a16.133 16.133 0 012.515-7.5h5.872c-.527 2.244-.847 4.775-.924 7.5h-7.463zm10.98-7.5h10.412c.56 2.151.931 4.682 1.018 7.5H53.415c.085-2.818.458-5.349 1.017-7.5zm5.206-7.5c1.554 0 3.197 1.859 4.41 5h-8.821c1.213-3.141 2.857-5 4.41-5zm16.186 15H68.36c-.076-2.725-.396-5.256-.923-7.5h5.872a16.12 16.12 0 012.515 7.5zM68.347 20h7.488a16.234 16.234 0 01-2.54 7.5h-5.897c.551-2.314.871-4.855.949-7.5zm2.99-12.5H66.72c-.55-1.619-1.217-3.026-1.985-4.169 2.535.84 4.79 2.286 6.602 4.169zM54.54 3.331c-.768 1.143-1.436 2.55-1.986 4.169h-4.616a16.275 16.275 0 016.602-4.169zM43.458 20h7.46c.05 1.72.2 3.392.455 5h-6.691a15.968 15.968 0 01-1.224-5zm-38.82 7.5h57.5c.689 0 1.25.561 1.25 1.25v3.75H22.87l-2.5 2.5H3.388v-6.25c0-.689.561-1.25 1.25-1.25zm57.5 47.5h-57.5c-.689 0-1.25-.561-1.25-1.25V37.5h18.017l2.5-2.5h39.483v38.75c0 .689-.561 1.25-1.25 1.25zm3.75-41.269V30h5.426a16.198 16.198 0 01-5.426 3.731z" fill="currentColor"/><path d="M60.888 12.5h2.5V15h-2.5v-2.5zM55.888 12.5h2.5V15h-2.5v-2.5z" fill="currentColor"/></svg><svg fill="none" viewBox="0 0 76 75" id="api2" xmlns="http://www.w3.org/2000/svg"><path d="M71.888 67.5c-1.628 0-3.003 1.049-3.52 2.5h-22.73v-5h-2.5v6.25c0 .691.559 1.25 1.25 1.25h23.98c.517 1.451 1.892 2.5 3.52 2.5a3.755 3.755 0 003.75-3.75 3.755 3.755 0 00-3.75-3.75zm0 5a1.25 1.25 0 110-2.5 1.25 1.25 0 010 2.5zM71.888 33.75c-1.628 0-3.003 1.049-3.52 2.5h-7.73v-2.5c0-.691-.559-1.25-1.25-1.25h-2.13c-1.693 0-2.75-1.096-3.175-2.121-.425-1.025-.453-2.549.745-3.747l1.506-1.506a1.249 1.249 0 000-1.767l-5.304-5.304a1.249 1.249 0 00-1.767 0l-1.506 1.506c-1.2 1.199-2.724 1.17-3.747.745-1.025-.425-2.12-1.482-2.12-3.175V15c0-.691-.56-1.25-1.25-1.25h-7.73c-.518-1.451-1.893-2.5-3.52-2.5H4.387A3.755 3.755 0 00.638 15v45a3.755 3.755 0 003.75 3.75h25c1.627 0 3.002-1.049 3.52-2.5h7.73c.691 0 1.25-.559 1.25-1.25v-2.13c0-1.692 1.096-2.75 2.121-3.175 1.023-.424 2.548-.454 3.746.745l1.507 1.506a1.249 1.249 0 001.767 0l5.304-5.303a1.249 1.249 0 000-1.768l-1.506-1.506c-1.198-1.198-1.17-2.721-.745-3.746.425-1.026 1.482-2.123 3.176-2.123h2.13c.691 0 1.25-.559 1.25-1.25v-2.5h7.73c.517 1.451 1.892 2.5 3.52 2.5a3.755 3.755 0 003.75-3.75 3.755 3.755 0 00-3.75-3.75zm-38.75-6.841a11.16 11.16 0 013.75-.659c6.204 0 11.25 5.046 11.25 11.25s-5.046 11.25-11.25 11.25a11.16 11.16 0 01-3.75-.659V26.91zM20.868 13.75c-.14.393-.23.81-.23 1.25 0 .69-.56 1.25-1.25 1.25h-5c-.69 0-1.25-.56-1.25-1.25 0-.44-.09-.857-.23-1.25h7.96zM30.638 60c0 .69-.56 1.25-1.25 1.25h-25c-.69 0-1.25-.56-1.25-1.25V15c0-.69.56-1.25 1.25-1.25h5c.69 0 1.25.56 1.25 1.25a3.755 3.755 0 003.75 3.75h5a3.755 3.755 0 003.75-3.75c0-.69.56-1.25 1.25-1.25h5c.69 0 1.25.56 1.25 1.25v45zm27.5-20h-.88c-2.448 0-4.549 1.404-5.486 3.665-.937 2.261-.443 4.741 1.287 6.471l.623.623-3.537 3.536-.622-.623c-1.731-1.732-4.209-2.222-6.471-1.287-2.26.936-3.664 3.038-3.664 5.485v.88h-6.25v-8.039c1.217.348 2.47.539 3.75.539 7.581 0 13.75-6.169 13.75-13.75s-6.169-13.75-13.75-13.75c-1.28 0-2.533.191-3.75.539V16.25h6.25v.88c0 2.448 1.404 4.549 3.665 5.486 2.264.938 4.742.443 6.471-1.287l.623-.623 3.536 3.537-.623.622c-1.73 1.73-2.223 4.21-1.287 6.471.936 2.26 3.037 3.664 5.485 3.664h.88v5zm13.75-1.25a1.25 1.25 0 110-2.5 1.25 1.25 0 010 2.5zM71.888 53.75c-1.628 0-3.003 1.049-3.52 2.5h-5.855l-3.375-4.5-2 1.5 3.75 5c.235.315.606.5 1 .5h6.48c.517 1.451 1.892 2.5 3.52 2.5a3.755 3.755 0 003.75-3.75 3.755 3.755 0 00-3.75-3.75zm0 5a1.25 1.25 0 110-2.5 1.25 1.25 0 010 2.5z" fill="currentColor"/><path d="M26.888 21.25h-20c-.691 0-1.25.559-1.25 1.25v33.75c0 .691.559 1.25 1.25 1.25h20c.691 0 1.25-.559 1.25-1.25V22.5c0-.691-.559-1.25-1.25-1.25zm-1.25 2.5v2.5h-17.5v-2.5h17.5zM8.138 55V28.75h17.5V55h-17.5z" fill="currentColor"/><path d="M18.138 48.75h5v2.5h-5v-2.5zM15.638 31.25h2.5v2.5h-2.5v-2.5zM10.638 31.25h2.5v2.5h-2.5v-2.5zM71.888 13.75c-1.628 0-3.003 1.049-3.52 2.5h-6.48a1.25 1.25 0 00-1 .5l-3.75 5 2 1.499 3.375-4.5h5.855c.517 1.451 1.892 2.5 3.52 2.5a3.755 3.755 0 003.75-3.75 3.753 3.753 0 00-3.75-3.749zm0 5a1.25 1.25 0 110-2.5 1.25 1.25 0 010 2.5zM71.888 0c-1.628 0-3.003 1.049-3.52 2.5h-23.98c-.691 0-1.25.559-1.25 1.25V10h2.5V5h22.73c.517 1.451 1.892 2.5 3.52 2.5a3.755 3.755 0 003.75-3.75A3.755 3.755 0 0071.888 0zm0 5a1.25 1.25 0 110-2.5 1.25 1.25 0 010 2.5z" fill="currentColor"/></svg><svg fill="none" viewBox="0 0 72 80" id="computer" xmlns="http://www.w3.org/2000/svg">;<path d="M33.267 44.618h4.74a1.173 1.173 0 000-2.344h-4.74a1.172 1.172 0 100 2.344zM30.283 14.702a1.173 1.173 0 00-1.653.13L16.454 29.088a1.173 1.173 0 001.783 1.523l12.176-14.256a1.173 1.173 0 00-.13-1.653zM16.566 23.218a1.17 1.17 0 001.655-.097l3.292-3.703a1.172 1.172 0 10-1.753-1.558l-3.291 3.703a1.173 1.173 0 00.097 1.655zM64.673 65.46a2.403 2.403 0 00-2.299-1.682H22.708a1.173 1.173 0 000 2.345h39.666c.03 0 .055.019.064.046l3.613 11.399a.06.06 0 01-.01.06c-.02.027-.042.027-.054.027h-60.7c-.011 0-.033 0-.053-.027a.06.06 0 01-.01-.06l3.613-11.399a.067.067 0 01.063-.046h8.515a1.172 1.172 0 100-2.345H8.901c-1.057 0-1.98.676-2.3 1.683L2.99 76.859a2.388 2.388 0 00.353 2.154C3.8 79.64 4.51 80 5.288 80h60.699c.777 0 1.487-.36 1.946-.987.46-.628.588-1.413.353-2.154l-3.613-11.398z" fill="currentColor"/><path d="M66.587 0H4.688A4.694 4.694 0 000 4.689v39.71a4.694 4.694 0 004.689 4.688H27.71c-.08 2.356-.312 6.264-.817 8.456h-5.046a1.172 1.172 0 100 2.345h27.58a1.172 1.172 0 000-2.345h-5.047c-.504-2.191-.736-6.1-.816-8.456h23.022a4.694 4.694 0 004.689-4.688V4.689A4.695 4.695 0 0066.586 0zM29.288 57.543c.517-2.65.705-6.534.768-8.456H41.22c.063 1.922.25 5.805.768 8.456H29.288zM68.93 44.399a2.347 2.347 0 01-2.344 2.344H4.69a2.347 2.347 0 01-2.344-2.344v-4.25H68.93v4.25zm0-6.594h-3.08V20.498a1.172 1.172 0 10-2.345 0v17.307H7.77V7.948c0-.17.139-.31.31-.31h55.116c.17 0 .31.14.31.31v7.185a1.173 1.173 0 002.344 0V7.948a2.658 2.658 0 00-2.654-2.655H8.08a2.658 2.658 0 00-2.655 2.655v29.857h-3.08V4.689a2.347 2.347 0 012.344-2.344h61.898a2.346 2.346 0 012.343 2.344v33.116zM17.416 68.618h-1.591a1.173 1.173 0 000 2.345h1.59a1.172 1.172 0 100-2.345zM22.189 70.963h1.59a1.172 1.172 0 100-2.345h-1.59a1.173 1.173 0 000 2.345zM28.552 70.963h1.591a1.172 1.172 0 100-2.345h-1.59a1.173 1.173 0 000 2.345zM34.916 70.963h1.592a1.172 1.172 0 100-2.345h-1.592a1.172 1.172 0 000 2.345zM41.28 70.963h1.591a1.172 1.172 0 100-2.345h-1.59a1.173 1.173 0 000 2.345zM47.644 70.963h1.591a1.172 1.172 0 100-2.345h-1.59a1.173 1.173 0 000 2.345zM53.86 70.963h1.59a1.172 1.172 0 100-2.345h-1.59a1.173 1.173 0 000 2.345zM17.416 72.815h-1.591a1.173 1.173 0 000 2.345h1.59a1.172 1.172 0 100-2.345zM22.189 75.16h1.59a1.172 1.172 0 100-2.345h-1.59a1.172 1.172 0 100 2.345zM28.552 75.16h1.591a1.172 1.172 0 100-2.345h-1.59a1.172 1.172 0 100 2.345zM34.916 75.16h1.592a1.172 1.172 0 100-2.345h-1.592a1.172 1.172 0 000 2.345zM41.28 75.16h1.591a1.172 1.172 0 100-2.345h-1.59a1.173 1.173 0 000 2.345zM47.644 75.16h1.591a1.172 1.172 0 100-2.345h-1.59a1.172 1.172 0 100 2.345zM53.86 75.16h1.59a1.172 1.172 0 100-2.345h-1.59a1.173 1.173 0 000 2.345z" fill="currentColor"/></svg><svg fill="none" viewBox="0 0 81 80" id="servers" xmlns="http://www.w3.org/2000/svg"><path d="M68.971 63.33H42.304a1.667 1.667 0 000 3.333h26.667a1.667 1.667 0 000-3.333zM68.971 69.996H42.304a1.667 1.667 0 000 3.334h26.667a1.667 1.667 0 000-3.334zM12.305 63.33c-2.757 0-5 2.243-5 5 0 2.756 2.243 5 5 5 2.756 0 5-2.244 5-5 0-2.757-2.244-5-5-5zm0 6.666a1.667 1.667 0 110-3.335 1.667 1.667 0 010 3.335zM12.305 43.33c-2.757 0-5 2.243-5 5 0 2.756 2.243 5 5 5 2.756 0 5-2.244 5-5 0-2.757-2.244-5-5-5zm0 6.666a1.667 1.667 0 110-3.335 1.667 1.667 0 010 3.335zM68.971 29.996H42.304a1.667 1.667 0 000 3.334h26.667a1.667 1.667 0 000-3.334z" fill="currentColor"/><path d="M80.638 31.663v-6.666c0-1.6-.477-3.084-1.264-4.357-.023-.047-.026-.1-.053-.143L69.015 3.93A8.285 8.285 0 0061.938 0h-42.59a8.28 8.28 0 00-7.077 3.93L1.965 20.497c-.017.026-.017.056-.034.086a8.267 8.267 0 00-1.293 4.414v6.666c0 2.734 1.343 5.147 3.387 6.667C1.98 39.853.638 42.263.638 44.997v6.666c0 2.734 1.343 5.147 3.387 6.667C1.98 59.853.638 62.263.638 64.997v6.666c0 4.594 3.74 8.334 8.333 8.334h63.333c4.594 0 8.334-3.74 8.334-8.334v-6.666c0-2.734-1.344-5.147-3.387-6.667 2.043-1.52 3.387-3.933 3.387-6.667v-6.666c0-2.734-1.344-5.147-3.387-6.667 2.043-1.52 3.387-3.93 3.387-6.667zM15.1 5.69a4.965 4.965 0 014.243-2.36h42.59c1.74 0 3.327.883 4.244 2.36l6.876 11.05c-.25-.023-.493-.077-.75-.077H8.971c-.257 0-.497.054-.747.077l6.877-11.05zm62.204 59.307v6.666c0 2.757-2.244 5-5 5H8.97c-2.757 0-5-2.243-5-5v-6.666c0-2.757 2.243-5 5-5h63.333c2.757 0 5 2.243 5 5zm0-20v6.666c0 2.757-2.244 5-5 5H8.97c-2.757 0-5-2.243-5-5v-6.666c0-2.757 2.243-5 5-5h63.333c2.757 0 5 2.243 5 5zm0-13.334c0 2.757-2.244 5-5 5H8.97c-2.757 0-5-2.243-5-5v-6.666c0-2.757 2.243-5 5-5h63.333c2.757 0 5 2.243 5 5v6.666z" fill="currentColor"/><path d="M68.971 23.33H42.304a1.667 1.667 0 000 3.333h26.667a1.667 1.667 0 000-3.333zM68.971 49.996H42.304a1.667 1.667 0 000 3.334h26.667a1.667 1.667 0 000-3.334zM68.971 43.33H42.304a1.667 1.667 0 000 3.333h26.667a1.667 1.667 0 000-3.333zM12.305 23.33c-2.757 0-5 2.243-5 5 0 2.756 2.243 5 5 5 2.756 0 5-2.244 5-5 0-2.757-2.244-5-5-5zm0 6.666a1.667 1.667 0 110-3.335 1.667 1.667 0 010 3.335z" fill="currentColor"/></svg></svg>