<?xml version="1.0" encoding="utf-8"?><svg viewBox="0 0 18 15" xmlns="http://www.w3.org/2000/svg" xmlns:xlink="http://www.w3.org/1999/xlink"><style>:root>svg{display:none}:root>svg:target{display:block}</style><svg fill="none" viewBox="0 0 11 8" id="arrow-down" xmlns="http://www.w3.org/2000/svg"><path d="M1.358.91L5.18 4.731 9 .911l1.18 1.179-5 5-5-5L1.357.91z" fill="currentColor"/></svg><svg fill="none" viewBox="0 0 5 10" id="arrow-narrow-left" xmlns="http://www.w3.org/2000/svg"><path d="M.102 4.841L4.45 0 2.276 4.841 4.45 10 .102 4.841z" fill="currentColor"/></svg><svg fill="none" viewBox="0 0 5 10" id="arrow-narrow-right" xmlns="http://www.w3.org/2000/svg"><path d="M4.798 4.841L.45 0l2.174 4.841L.45 10l4.348-5.159z" fill="currentColor"/></svg><svg fill="none" viewBox="0 0 7 10" id="arrow-right" xmlns="http://www.w3.org/2000/svg"><path d="M0 8.82L3.82 5 0 1.18 1.18 0l5 5-5 5L0 8.82z" fill="currentColor"/></svg><svg fill="none" viewBox="0 0 11 10" id="arrow-triangle-right" xmlns="http://www.w3.org/2000/svg"><path d="M9.895 4.669L.61.296a.354.354 0 00-.428.102.368.368 0 00-.008.448L3.227 5 .174 9.154a.37.37 0 00.008.447.353.353 0 00.427.102l9.285-4.372A.364.364 0 0010.102 5a.365.365 0 00-.207-.331z" fill="currentColor"/></svg><svg fill="none" viewBox="0 0 11 8" id="arrow-up" xmlns="http://www.w3.org/2000/svg"><path d="M9 7.09L5.18 3.269l-3.822 3.82L.18 5.91l5-5 5 5L9 7.09z" fill="currentColor"/></svg><svg fill="none" viewBox="0 0 15 15" id="cross" xmlns="http://www.w3.org/2000/svg"><path d="M1 1l6.387 6.387m0 0l6.387 6.387M7.387 7.387L1 13.774m6.387-6.387L13.774 1" stroke="currentColor" stroke-width="2" stroke-linecap="round" stroke-linejoin="round"/></svg><svg fill="none" viewBox="0 0 6 10" id="facebook" xmlns="http://www.w3.org/2000/svg"><path d="M4.267 1.66h.913V.07C5.022.05 4.48 0 3.85 0 2.533 0 1.632.828 1.632 2.35v1.4H.179v1.777h1.453V10h1.78V5.528h1.394l.222-1.778H3.412V2.526c0-.514.139-.866.855-.866z" fill="currentColor"/></svg><svg fill="none" viewBox="0 0 11 10" id="help" xmlns="http://www.w3.org/2000/svg"><path d="M5.102 7.88a.488.488 0 100-.976.488.488 0 000 .977z" fill="currentColor"/><path d="M5.102 0c-2.763 0-5 2.236-5 5 0 2.763 2.236 5 5 5s5-2.236 5-5c0-2.763-2.236-5-5-5zm0 9.219A4.216 4.216 0 01.883 5 4.216 4.216 0 015.103.781 4.216 4.216 0 019.32 5a4.216 4.216 0 01-4.219 4.219z" fill="currentColor"/><path d="M5.102 2.51c-.861 0-1.562.7-1.562 1.562a.39.39 0 00.781 0 .782.782 0 11.781.782.39.39 0 00-.39.39v.977a.39.39 0 10.78 0v-.636a1.565 1.565 0 001.173-1.513c0-.861-.701-1.562-1.563-1.562z" fill="currentColor"/></svg><svg fill="none" viewBox="0 0 11 10" id="instagram" xmlns="http://www.w3.org/2000/svg"><path fill-rule="evenodd" clip-rule="evenodd" d="M3.305 0h3.75C8.78 0 10.18 1.4 10.18 3.125v3.75C10.18 8.601 8.78 10 7.055 10h-3.75A3.125 3.125 0 01.18 6.875v-3.75C.18 1.399 1.579 0 3.305 0zm3.75 9.063a2.19 2.19 0 002.187-2.188v-3.75A2.19 2.19 0 007.055.937h-3.75a2.19 2.19 0 00-2.188 2.188v3.75a2.19 2.19 0 002.188 2.188h3.75z" fill="currentColor"/><path fill-rule="evenodd" clip-rule="evenodd" d="M2.68 5a2.5 2.5 0 115 0 2.5 2.5 0 01-5 0zm.937 0c0 .861.701 1.563 1.563 1.563.86 0 1.562-.702 1.562-1.563 0-.862-.701-1.563-1.562-1.563-.862 0-1.563.701-1.563 1.563z" fill="currentColor"/><path d="M8.305 2.188a.313.313 0 11-.625 0 .313.313 0 01.625 0z" fill="currentColor"/></svg><svg fill="none" viewBox="0 0 18 12" id="menu" xmlns="http://www.w3.org/2000/svg"><path d="M0 0h18v2H0V0zm0 5h18v2H0V5zm0 5h18v2H0v-2z" fill="currentColor"/></svg><svg fill="none" viewBox="0 0 11 10" id="paw" xmlns="http://www.w3.org/2000/svg"><path d="M7.574 5.684c-.673-.813-1.523-1.26-2.395-1.26-.871 0-1.721.447-2.394 1.26-.605.73-.966 1.65-.966 2.461 0 .394.12.694.358.892.235.196.544.262.89.262.367 0 .775-.075 1.176-.149.35-.064.681-.125.936-.125.22 0 .531.058.86.119.767.143 1.638.304 2.14-.114.24-.199.36-.496.36-.885 0-.811-.36-1.731-.965-2.461zM7.643 1.272c-.246-.363-.599-.57-.967-.57-.369 0-.721.207-.967.57-.227.334-.351.772-.351 1.233 0 .462.124.9.35 1.233.247.363.6.571.968.571s.72-.208.967-.57c.226-.334.35-.772.35-1.234 0-.461-.124-.9-.35-1.233zM10.121 4.104c-.099-.338-.312-.583-.599-.69a.941.941 0 00-.734.04c-.334.157-.607.48-.749.886-.116.333-.13.684-.04.99.099.337.311.582.598.69a.88.88 0 00.311.056 1 1 0 00.424-.098c.334-.156.607-.479.749-.885.116-.332.13-.684.04-.989zM4.65 1.272c-.246-.363-.598-.57-.967-.57-.368 0-.72.207-.967.57-.226.334-.35.772-.35 1.233 0 .462.124.9.35 1.233.246.363.599.571.967.571.369 0 .721-.208.967-.57.226-.334.35-.772.35-1.234 0-.461-.124-.9-.35-1.233zM2.32 4.34c-.142-.406-.415-.729-.75-.885a.941.941 0 00-.733-.042c-.287.108-.5.353-.6.691-.089.305-.075.656.041.989.143.406.416.729.75.885a1 1 0 00.423.098.881.881 0 00.31-.056c.288-.108.5-.353.6-.691.09-.305.075-.656-.041-.989z" fill="currentColor"/></svg><svg fill="none" viewBox="0 0 11 10" id="twitter" xmlns="http://www.w3.org/2000/svg"><path d="M10.18 1.9a4.275 4.275 0 01-1.182.323c.425-.254.75-.652.902-1.133a4.097 4.097 0 01-1.3.496 2.05 2.05 0 00-3.546 1.402c0 .163.014.319.047.468A5.803 5.803 0 01.876 1.31a2.053 2.053 0 00.63 2.74A2.025 2.025 0 01.58 3.8v.022c0 .996.71 1.824 1.642 2.015a2.046 2.046 0 01-.537.067c-.132 0-.264-.007-.389-.035a2.07 2.07 0 001.916 1.428 4.12 4.12 0 01-3.032.846c.908.586 1.984.92 3.145.92 3.772 0 5.835-3.124 5.835-5.833 0-.09-.004-.178-.008-.265a4.09 4.09 0 001.028-1.065z" fill="currentColor"/></svg><svg fill="none" viewBox="0 0 9 10" id="upload" xmlns="http://www.w3.org/2000/svg"><path d="M5.568.077A.242.242 0 005.395 0H1.494A1.32 1.32 0 00.18 1.312v7.376C.18 9.408.774 10 1.494 10h5.294a1.32 1.32 0 001.314-1.312V2.831a.26.26 0 00-.07-.17L5.568.078zm.07.776l1.65 1.732H6.216a.575.575 0 01-.578-.575V.853zm1.15 8.664H1.494a.837.837 0 01-.831-.829V1.312c0-.452.376-.829.83-.829h3.662V2.01c0 .587.474 1.058 1.06 1.058H7.62v5.62a.835.835 0 01-.83.829z" fill="currentColor"/><path d="M6.129 7.85H2.153a.242.242 0 00-.242.242c0 .133.11.241.242.241h3.978a.242.242 0 00.242-.241.243.243 0 00-.244-.242zM2.904 5.251l.995-1.07V6.82a.242.242 0 00.483 0V4.18l.996 1.07a.24.24 0 00.34.012.24.24 0 00.012-.34l-1.415-1.52a.243.243 0 00-.177-.077.243.243 0 00-.176.077l-1.415 1.52a.24.24 0 00.012.34.246.246 0 00.345-.012z" fill="currentColor"/></svg></svg>