<?xml version="1.0" encoding="utf-8"?><svg viewBox="0 0 180 135" xmlns="http://www.w3.org/2000/svg" xmlns:xlink="http://www.w3.org/1999/xlink"><style>:root>svg{display:none}:root>svg:target{display:block}</style><svg fill="none" viewBox="0 0 45 107" id="brace-left" xmlns="http://www.w3.org/2000/svg"><path d="M30.833 107H40c2.761 0 5-2.246 5-5.016s-2.239-5.015-5-5.015h-9.167c-4.135 0-7.5-3.375-7.5-7.524v-22.57c0-1.33-.526-2.606-1.464-3.547L12.071 53.5l9.798-9.828a5.024 5.024 0 001.464-3.547v-22.57c0-4.149 3.365-7.524 7.5-7.524H40c2.761 0 5-2.245 5-5.015C45 2.246 42.761 0 40 0h-9.167c-9.65 0-17.5 7.875-17.5 17.555v20.492L1.465 49.954a5.027 5.027 0 000 7.093l11.868 11.906v20.492c0 9.68 7.85 17.555 17.5 17.555z" fill="#2E4960"/></svg><svg fill="none" viewBox="0 0 45 107" id="brace-right" xmlns="http://www.w3.org/2000/svg"><path d="M14.167 107H5c-2.761 0-5-2.246-5-5.016s2.239-5.015 5-5.015h9.167c4.135 0 7.5-3.375 7.5-7.524v-22.57c0-1.33.526-2.606 1.464-3.547l9.798-9.828-9.798-9.828a5.024 5.024 0 01-1.464-3.547v-22.57c0-4.149-3.365-7.524-7.5-7.524H5c-2.761 0-5-2.245-5-5.015C0 2.246 2.239 0 5 0h9.167c9.65 0 17.5 7.875 17.5 17.555v20.492l11.868 11.907a5.027 5.027 0 010 7.093L31.667 68.953v20.492c0 9.68-7.85 17.555-17.5 17.555z" fill="#2E4960"/></svg><svg fill="none" viewBox="0 0 180 135" id="more" xmlns="http://www.w3.org/2000/svg"><path d="M87.5 135c37.279 0 67.5-30.221 67.5-67.5C155 30.22 124.779 0 87.5 0 50.22 0 20 30.22 20 67.5c0 37.279 30.22 67.5 67.5 67.5z" fill="#FFE14D"/><path d="M155 67.5C155 30.28 124.72 0 87.5 0v135c37.22 0 67.5-30.28 67.5-67.5z" fill="#FB3"/><path d="M87.5 118.916c-28.35 0-51.416-23.066-51.416-51.416 0-28.35 23.066-51.416 51.416-51.416 28.35 0 51.416 23.066 51.416 51.416 0 28.35-23.066 51.416-51.416 51.416z" fill="#FB3"/><path d="M138.916 67.5c0-28.35-23.066-51.416-51.416-51.416v102.832c28.35 0 51.416-23.066 51.416-51.416z" fill="#E68A2E"/><path d="M91.455 63.827V48.189c4.549 1.116 7.91 4.043 7.91 7.407a3.953 3.953 0 003.955 3.955 3.953 3.953 0 003.955-3.955c0-7.641-6.803-14.03-15.82-15.5v-4.275a3.953 3.953 0 00-3.955-3.955 3.953 3.953 0 00-3.955 3.955v4.275c-9.017 1.47-15.82 7.859-15.82 15.5 0 7.642 6.803 14.031 15.82 15.5v15.638c-4.549-1.116-7.91-4.043-7.91-7.407a3.953 3.953 0 00-3.955-3.955 3.953 3.953 0 00-3.955 3.955c0 7.642 6.803 14.03 15.82 15.5v4.314a3.953 3.953 0 003.955 3.955 3.953 3.953 0 003.955-3.955v-4.314c9.017-1.47 15.82-7.858 15.82-15.5s-6.803-14.032-15.82-15.5zm-15.82-8.23c0-3.365 3.361-6.292 7.91-7.408v14.814c-4.549-1.116-7.91-4.043-7.91-7.407zm15.82 31.137V71.92c4.549 1.116 7.91 4.043 7.91 7.407s-3.361 6.29-7.91 7.407z" fill="#FFE14D"/><path d="M91.455 99.14v-4.313c9.017-1.47 15.82-7.858 15.82-15.5s-6.803-14.032-15.82-15.5V48.189c4.549 1.116 7.91 4.043 7.91 7.407a3.953 3.953 0 003.955 3.955 3.953 3.953 0 003.955-3.955c0-7.641-6.803-14.03-15.82-15.5v-4.275a3.953 3.953 0 00-3.955-3.955v71.23a3.953 3.953 0 003.955-3.955zm0-27.22c4.549 1.116 7.91 4.043 7.91 7.407s-3.361 6.29-7.91 7.407V71.92z" fill="#FB3"/><path d="M48.043 129.861c-8.263 6.745-34.063 6.745-42.158 0-8.263-6.745-7.42-35.581 0-43.17 7.42-7.588 34.738-7.588 42.158 0 7.42 7.589 8.263 36.425 0 43.17z" fill="#2E4960"/><path d="M42.985 107.939a3.023 3.023 0 01-3.036 3.035H29.832v10.118a3.023 3.023 0 01-3.036 3.036 3.023 3.023 0 01-3.035-3.036v-10.118H13.643a3.023 3.023 0 01-3.036-3.035 3.023 3.023 0 013.036-3.035H23.76V94.786a3.023 3.023 0 013.035-3.035 3.023 3.023 0 013.035 3.035v10.118H39.95a3.023 3.023 0 013.036 3.035zM121 92.86v37.08a2.98 2.98 0 002.978 2.979h53.044A2.98 2.98 0 00180 129.94V92.86h-59z" fill="#fff"/><path d="M177.022 81.12h-53.044A2.979 2.979 0 00121 84.1v9.824h59v-9.825a2.979 2.979 0 00-2.978-2.978z" fill="#FF9F00"/><path d="M130.797 78.082c-.816-.001-1.478.66-1.479 1.477v5.315a1.48 1.48 0 002.957 0v-5.306a1.478 1.478 0 00-1.47-1.486h-.008zM143.933 78.082c-.816-.001-1.478.66-1.479 1.477v5.315a1.478 1.478 0 002.957 0v-5.306a1.478 1.478 0 00-1.47-1.486h-.008zM157.067 78.082c-.816 0-1.477.661-1.477 1.478v5.314a1.479 1.479 0 002.956 0v-5.306a1.477 1.477 0 00-1.469-1.486h-.01zM170.203 78.082a1.477 1.477 0 00-1.48 1.475v5.317a1.479 1.479 0 002.957 0v-5.306a1.478 1.478 0 00-1.47-1.486h-.007zM159.168 103.251c-5.041-2.809-8.668 1.82-8.668 1.82s-3.626-4.629-8.668-1.82c-5.808 3.238-4.079 16.983 8.668 21.273 12.747-4.291 14.476-18.035 8.668-21.273z" fill="#2E4960"/></svg><svg fill="none" viewBox="0 0 135 135" id="onve" xmlns="http://www.w3.org/2000/svg"><path d="M67.5 135c37.279 0 67.5-30.221 67.5-67.5C135 30.22 104.779 0 67.5 0 30.22 0 0 30.22 0 67.5 0 104.779 30.22 135 67.5 135z" fill="#FFE14D"/><path d="M135 67.5C135 30.28 104.72 0 67.5 0v135c37.22 0 67.5-30.28 67.5-67.5z" fill="#FB3"/><path d="M67.5 118.916c-28.35 0-51.416-23.066-51.416-51.416 0-28.35 23.066-51.416 51.416-51.416 28.35 0 51.416 23.066 51.416 51.416 0 28.35-23.066 51.416-51.416 51.416z" fill="#FB3"/><path d="M118.916 67.5c0-28.35-23.066-51.416-51.416-51.416v102.832c28.35 0 51.416-23.066 51.416-51.416z" fill="#E68A2E"/><path d="M71.455 63.827V48.189c4.549 1.116 7.91 4.043 7.91 7.407a3.953 3.953 0 003.955 3.955 3.953 3.953 0 003.955-3.955c0-7.641-6.803-14.03-15.82-15.5v-4.275a3.953 3.953 0 00-3.955-3.955 3.953 3.953 0 00-3.955 3.955v4.275c-9.017 1.47-15.82 7.859-15.82 15.5 0 7.642 6.803 14.031 15.82 15.5v15.638c-4.549-1.116-7.91-4.043-7.91-7.407a3.953 3.953 0 00-3.955-3.955 3.953 3.953 0 00-3.955 3.955c0 7.642 6.803 14.03 15.82 15.5v4.314a3.953 3.953 0 003.955 3.955 3.953 3.953 0 003.955-3.955v-4.314c9.017-1.47 15.82-7.858 15.82-15.5s-6.803-14.032-15.82-15.5zm-15.82-8.23c0-3.365 3.361-6.292 7.91-7.408v14.814c-4.549-1.116-7.91-4.043-7.91-7.407zm15.82 31.137V71.92c4.549 1.116 7.91 4.043 7.91 7.407s-3.361 6.29-7.91 7.407z" fill="#FFE14D"/><path d="M71.455 99.14v-4.313c9.017-1.47 15.82-7.858 15.82-15.5s-6.803-14.032-15.82-15.5V48.189c4.549 1.116 7.91 4.043 7.91 7.407a3.953 3.953 0 003.955 3.955 3.953 3.953 0 003.955-3.955c0-7.641-6.803-14.03-15.82-15.5v-4.275a3.953 3.953 0 00-3.955-3.955v71.23a3.953 3.953 0 003.955-3.955zm0-27.22c4.549 1.116 7.91 4.043 7.91 7.407s-3.361 6.29-7.91 7.407V71.92z" fill="#FB3"/></svg></svg>