<svg width="128" height="123" fill="none" xmlns="http://www.w3.org/2000/svg"><path d="M119.23.414a125.466 125.466 0 0 0-40.355 25.064 28.367 28.367 0 0 0-9.767-1.762H58.852c-3.33 0-6.66.616-9.767 1.762A125.463 125.463 0 0 0 8.73.414C5.4-.819 1.67.854.428 4.16a6.07 6.07 0 0 0-.311 3.435A122.885 122.885 0 0 0 16.099 48.34c3.241 5.33 8.125 9.47 13.896 11.849l-4.573 41.228c0 11.937 17.27 21.584 38.58 21.584s38.58-9.647 38.58-21.584l-4.573-41.228c5.771-2.379 10.655-6.52 13.896-11.85a122.873 122.873 0 0 0 15.982-40.744c.666-3.48-1.687-6.827-5.194-7.488a6.43 6.43 0 0 0-3.419.308h-.044Z" fill="#DEC4A7"/><path d="m102.537 101.416-3.196-28.719-13.496-2.643a24.043 24.043 0 0 1-17.98-15.328l-3.907-10.792-3.907 10.792a24.043 24.043 0 0 1-17.98 15.328l-13.496 2.643-3.197 28.719c0 11.937 17.27 21.584 38.58 21.584s38.579-9.691 38.579-21.584Z" fill="#F3E8D4"/><path d="M81.05 74.68a2.076 2.076 0 0 0-2.087 2.07c0 3.523-2.886 6.43-6.437 6.43a6.49 6.49 0 0 1-6.349-5.109c.266-.176.444-.396.666-.617l4.884-6.21c1.243-1.586.932-3.833-.622-5.066a3.643 3.643 0 0 0-2.22-.749h-9.767c-1.998 0-3.64 1.63-3.64 3.612 0 .793.266 1.586.755 2.203l4.883 6.21c.178.22.4.44.622.617-.71 3.48-4.13 5.682-7.636 4.977a6.426 6.426 0 0 1-5.15-6.298c0-1.146-.933-2.07-2.087-2.07a2.076 2.076 0 0 0-2.087 2.07c0 5.814 4.75 10.527 10.611 10.571 3.374 0 6.57-1.586 8.568-4.317 3.463 4.713 10.122 5.727 14.828 2.247a10.47 10.47 0 0 0 4.351-8.501c0-1.19-.932-2.115-2.086-2.07Zm-.622-25.108c-2.664 0-4.84 2.158-4.84 4.801v3.392a4.85 4.85 0 0 0 5.017 4.67c2.575-.089 4.618-2.115 4.706-4.67v-3.392a4.87 4.87 0 0 0-4.883-4.801Zm-32.941 0c-2.664 0-4.884 2.114-4.884 4.801v3.392c.089 2.643 2.309 4.757 5.017 4.67 2.575-.089 4.617-2.115 4.706-4.67v-3.392c-.045-2.643-2.176-4.801-4.84-4.801Z" fill="#2B1716"/></svg>