<svg width="128" height="123" fill="none" xmlns="http://www.w3.org/2000/svg"><path d="M119.23.414a125.466 125.466 0 0 0-40.355 25.064 28.367 28.367 0 0 0-9.767-1.762H58.852c-3.33 0-6.66.616-9.767 1.762A125.463 125.463 0 0 0 8.73.414C5.4-.819 1.67.854.428 4.16a6.07 6.07 0 0 0-.311 3.435A122.885 122.885 0 0 0 16.099 48.34c3.241 5.33 8.125 9.47 13.896 11.849l-4.573 41.228c0 11.937 17.27 21.584 38.58 21.584s38.58-9.647 38.58-21.584l-4.573-41.228c5.771-2.379 10.655-6.52 13.896-11.85a122.873 122.873 0 0 0 15.982-40.744c.666-3.48-1.687-6.827-5.194-7.488a6.43 6.43 0 0 0-3.419.308h-.044Z" fill="#000"/></svg>