<svg width="79" height="78" viewBox="0 0 79 78" fill="none" xmlns="http://www.w3.org/2000/svg">
<path d="M40.8878 70H60.8878V72.5H40.8878V70Z" fill="#FF9F00"/>
<path d="M58.3878 65H60.8878V67.5H58.3878V65Z" fill="#FF9F00"/>
<path d="M40.8878 65H55.8878V67.5H40.8878V65Z" fill="#FF9F00"/>
<path d="M30.8878 65H23.3878C22.0091 65 20.8878 66.1212 20.8878 67.5V70C20.8878 71.3788 22.0091 72.5 23.3878 72.5H30.8878C32.2666 72.5 33.3878 71.3788 33.3878 70V67.5C33.3878 66.1212 32.2666 65 30.8878 65ZM23.3878 70V67.5H30.8878L30.8891 70H23.3878Z" fill="#FF9F00"/>
<path d="M15.8878 65H8.38782C7.00907 65 5.88782 66.1212 5.88782 67.5V70C5.88782 71.3788 7.00907 72.5 8.38782 72.5H15.8878C17.2666 72.5 18.3878 71.3788 18.3878 70V67.5C18.3878 66.1212 17.2666 65 15.8878 65ZM8.38782 70V67.5H15.8878L15.8891 70H8.38782Z" fill="#FF9F00"/>
<path d="M40.8878 60H60.8878V62.5H40.8878V60Z" fill="#FF9F00"/>
<path d="M29.6378 45H32.1378V57.5H29.6378V60H37.1378V57.5H34.6378V45H37.1378V42.5H29.6378V45Z" fill="#FF9F00"/>
<path d="M20.8878 52.5H23.3878C26.1453 52.5 28.3878 50.2575 28.3878 47.5C28.3878 44.7425 26.1453 42.5 23.3878 42.5H18.3878V60H20.8878V52.5ZM20.8878 45H23.3878C24.7666 45 25.8878 46.1212 25.8878 47.5C25.8878 48.8788 24.7666 50 23.3878 50H20.8878V45Z" fill="#FF9F00"/>
<path d="M8.38782 55H13.3878V60H15.8878V47.5C15.8878 44.7425 13.6453 42.5 10.8878 42.5C8.13032 42.5 5.88782 44.7425 5.88782 47.5V60H8.38782V55ZM10.8878 45C12.2666 45 13.3878 46.1212 13.3878 47.5V52.5H8.38782V47.5C8.38782 46.1212 9.50907 45 10.8878 45Z" fill="#FF9F00"/>
<path d="M40.8878 57.5H60.8878V37.5H40.8878V57.5ZM43.3878 40H58.3878V55H43.3878V40Z" fill="#FF9F00"/>
<path d="M15.8878 30H18.3878V32.5H15.8878V30Z" fill="#FF9F00"/>
<path d="M10.8878 30H13.3878V32.5H10.8878V30Z" fill="#FF9F00"/>
<path d="M5.88782 30H8.38782V32.5H5.88782V30Z" fill="#FF9F00"/>
<path d="M78.3878 18.75C78.3878 8.41125 69.9766 0 59.6378 0C52.4591 0 46.2166 4.06 43.0678 10H32.6553L30.1553 7.5H20.6578C20.1403 6.04875 18.7653 5 17.1378 5C15.0703 5 13.3878 6.6825 13.3878 8.75C13.3878 10.8175 15.0703 12.5 17.1378 12.5C18.7653 12.5 20.1403 11.4513 20.6578 10H29.1203L31.6203 12.5H41.9816C41.2866 14.4588 40.8878 16.5563 40.8878 18.75C40.8878 19.17 40.9291 19.5838 40.9578 20H37.6566L35.1566 17.5H25.6591C25.1416 16.0487 23.7666 15 22.1391 15C20.0716 15 18.3891 16.6825 18.3891 18.75C18.3891 20.8175 20.0716 22.5 22.1391 22.5C23.7666 22.5 25.1416 21.4513 25.6591 20H34.1216L36.6216 22.5H41.2878C41.4628 23.345 41.6891 24.18 41.9828 25H4.63782C2.57032 25 0.887817 26.6825 0.887817 28.75V73.75C0.887817 75.8175 2.57032 77.5 4.63782 77.5H62.1378C64.2053 77.5 65.8878 75.8175 65.8878 73.75V36.4062C73.2891 33.7812 78.3878 26.6613 78.3878 18.75ZM17.1378 10C16.4491 10 15.8878 9.43875 15.8878 8.75C15.8878 8.06125 16.4491 7.5 17.1378 7.5C17.8266 7.5 18.3878 8.06125 18.3878 8.75C18.3878 9.43875 17.8266 10 17.1378 10ZM22.1378 20C21.4491 20 20.8878 19.4388 20.8878 18.75C20.8878 18.0612 21.4491 17.5 22.1378 17.5C22.8266 17.5 23.3878 18.0612 23.3878 18.75C23.3878 19.4388 22.8266 20 22.1378 20ZM53.9091 25C53.6353 23.4012 53.4703 21.7287 53.4166 20H65.8478C65.7766 22.27 65.5266 24.4575 65.0853 26.4587C64.3978 25.5775 63.3391 25 62.1378 25H53.9091ZM43.4516 17.5C43.6628 14.7525 44.5553 12.1975 45.9666 10H51.8391C51.3116 12.2437 50.9916 14.775 50.9153 17.5H43.4516ZM54.4316 10H64.8441C65.4041 12.1512 65.7753 14.6825 65.8616 17.5H53.4153C53.5003 14.6825 53.8728 12.1512 54.4316 10ZM59.6378 2.5C61.1916 2.5 62.8353 4.35875 64.0478 7.5H55.2266C56.4403 4.35875 58.0841 2.5 59.6378 2.5ZM75.8241 17.5H68.3603C68.2841 14.775 67.9641 12.2437 67.4366 10H73.3091C74.7203 12.1975 75.6141 14.7525 75.8241 17.5ZM68.3466 20H75.8353C75.6228 22.71 74.7228 25.2775 73.2953 27.5H67.3978C67.9491 25.1862 68.2691 22.645 68.3466 20ZM71.3366 7.5H66.7203C66.1703 5.88125 65.5028 4.47375 64.7353 3.33125C67.2703 4.17125 69.5253 5.6175 71.3366 7.5ZM54.5403 3.33125C53.7716 4.47375 53.1041 5.88125 52.5541 7.5H47.9378C49.7503 5.6175 52.0053 4.17125 54.5403 3.33125ZM43.4578 20H50.9178C50.9678 21.72 51.1178 23.3925 51.3728 25H44.6816C44.0016 23.3887 43.5903 21.7163 43.4578 20ZM4.63782 27.5H62.1378C62.8266 27.5 63.3878 28.0612 63.3878 28.75V32.5H22.8703L20.3703 35H3.38782V28.75C3.38782 28.0612 3.94907 27.5 4.63782 27.5ZM62.1378 75H4.63782C3.94907 75 3.38782 74.4388 3.38782 73.75V37.5H21.4053L23.9053 35H63.3878V73.75C63.3878 74.4388 62.8266 75 62.1378 75ZM65.8878 33.7313V30H71.3141C69.7953 31.5812 67.9603 32.8638 65.8878 33.7313Z" fill="#FF9F00"/>
<path d="M60.8878 12.5H63.3878V15H60.8878V12.5Z" fill="#FF9F00"/>
<path d="M55.8878 12.5H58.3878V15H55.8878V12.5Z" fill="#FF9F00"/>
</svg>
