<svg width="76" height="75" viewBox="0 0 76 75" fill="none" xmlns="http://www.w3.org/2000/svg">
<path d="M71.8878 67.5C70.2603 67.5 68.8853 68.5487 68.3678 70H45.6378V65H43.1378V71.25C43.1378 71.9412 43.6966 72.5 44.3878 72.5H68.3678C68.8853 73.9513 70.2603 75 71.8878 75C73.9553 75 75.6378 73.3175 75.6378 71.25C75.6378 69.1825 73.9553 67.5 71.8878 67.5ZM71.8878 72.5C71.1978 72.5 70.6378 71.94 70.6378 71.25C70.6378 70.56 71.1978 70 71.8878 70C72.5778 70 73.1378 70.56 73.1378 71.25C73.1378 71.94 72.5778 72.5 71.8878 72.5Z" fill="#FF9F00"/>
<path d="M71.8878 33.75C70.2603 33.75 68.8853 34.7987 68.3678 36.25H60.6378V33.75C60.6378 33.0588 60.0791 32.5 59.3878 32.5H57.2578C55.5653 32.5 54.5078 31.4037 54.0828 30.3787C53.6578 29.3537 53.6303 27.83 54.8278 26.6325L56.3341 25.1262C56.8228 24.6375 56.8228 23.8475 56.3341 23.3587L51.0303 18.055C50.5416 17.5663 49.7516 17.5663 49.2628 18.055L47.7566 19.5613C46.5578 20.76 45.0328 20.7313 44.0103 20.3063C42.9853 19.8813 41.8891 18.8238 41.8891 17.1313V15C41.8891 14.3088 41.3303 13.75 40.6391 13.75H32.9091C32.3916 12.2987 31.0166 11.25 29.3891 11.25H4.38782C2.32032 11.25 0.637817 12.9325 0.637817 15V60C0.637817 62.0675 2.32032 63.75 4.38782 63.75H29.3878C31.0153 63.75 32.3903 62.7013 32.9078 61.25H40.6378C41.3291 61.25 41.8878 60.6912 41.8878 60V57.87C41.8878 56.1775 42.9841 55.12 44.0091 54.695C45.0316 54.2712 46.5566 54.2413 47.7553 55.44L49.2616 56.9463C49.7503 57.435 50.5403 57.435 51.0291 56.9463L56.3328 51.6425C56.8216 51.1537 56.8216 50.3638 56.3328 49.875L54.8266 48.3688C53.6291 47.1713 53.6566 45.6475 54.0816 44.6225C54.5066 43.5975 55.5641 42.5 57.2578 42.5H59.3878C60.0791 42.5 60.6378 41.9412 60.6378 41.25V38.75H68.3678C68.8853 40.2013 70.2603 41.25 71.8878 41.25C73.9553 41.25 75.6378 39.5675 75.6378 37.5C75.6378 35.4325 73.9553 33.75 71.8878 33.75ZM33.1378 26.9088C34.3453 26.48 35.6003 26.25 36.8878 26.25C43.0916 26.25 48.1378 31.2963 48.1378 37.5C48.1378 43.7037 43.0916 48.75 36.8878 48.75C35.6003 48.75 34.3453 48.52 33.1378 48.0912V26.9088ZM20.8678 13.75C20.7278 14.1425 20.6378 14.56 20.6378 15C20.6378 15.69 20.0778 16.25 19.3878 16.25H14.3878C13.6978 16.25 13.1378 15.69 13.1378 15C13.1378 14.56 13.0478 14.1425 12.9078 13.75H20.8678ZM30.6378 60C30.6378 60.69 30.0778 61.25 29.3878 61.25H4.38782C3.69782 61.25 3.13782 60.69 3.13782 60V15C3.13782 14.31 3.69782 13.75 4.38782 13.75H9.38782C10.0778 13.75 10.6378 14.31 10.6378 15C10.6378 17.0675 12.3203 18.75 14.3878 18.75H19.3878C21.4553 18.75 23.1378 17.0675 23.1378 15C23.1378 14.31 23.6978 13.75 24.3878 13.75H29.3878C30.0778 13.75 30.6378 14.31 30.6378 15V60ZM58.1378 40H57.2578C54.8103 40 52.7091 41.4038 51.7716 43.665C50.8353 45.9263 51.3291 48.4063 53.0591 50.1363L53.6816 50.7587L50.1453 54.295L49.5228 53.6725C47.7916 51.94 45.3141 51.45 43.0516 52.385C40.7916 53.3213 39.3878 55.4225 39.3878 57.87V58.75H33.1378V50.7113C34.3553 51.0588 35.6078 51.25 36.8878 51.25C44.4691 51.25 50.6378 45.0813 50.6378 37.5C50.6378 29.9187 44.4691 23.75 36.8878 23.75C35.6078 23.75 34.3553 23.9412 33.1378 24.2887V16.25H39.3878V17.13C39.3878 19.5775 40.7916 21.6788 43.0528 22.6163C45.3166 23.5538 47.7953 23.0588 49.5241 21.3288L50.1466 20.7063L53.6828 24.2425L53.0603 24.865C51.3291 26.595 50.8366 29.075 51.7728 31.3363C52.7091 33.5963 54.8103 35 57.2578 35H58.1378V40ZM71.8878 38.75C71.1978 38.75 70.6378 38.19 70.6378 37.5C70.6378 36.81 71.1978 36.25 71.8878 36.25C72.5778 36.25 73.1378 36.81 73.1378 37.5C73.1378 38.19 72.5778 38.75 71.8878 38.75Z" fill="#FF9F00"/>
<path d="M71.888 53.75C70.2605 53.75 68.8855 54.7988 68.368 56.25H62.513L59.138 51.75L57.138 53.25L60.888 58.25C61.123 58.565 61.4942 58.75 61.888 58.75H68.368C68.8855 60.2013 70.2605 61.25 71.888 61.25C73.9555 61.25 75.638 59.5675 75.638 57.5C75.638 55.4325 73.9555 53.75 71.888 53.75ZM71.888 58.75C71.198 58.75 70.638 58.19 70.638 57.5C70.638 56.81 71.198 56.25 71.888 56.25C72.578 56.25 73.138 56.81 73.138 57.5C73.138 58.19 72.578 58.75 71.888 58.75Z" fill="#FF9F00"/>
<path d="M26.8878 21.25H6.88782C6.19657 21.25 5.63782 21.8088 5.63782 22.5V56.25C5.63782 56.9412 6.19657 57.5 6.88782 57.5H26.8878C27.5791 57.5 28.1378 56.9412 28.1378 56.25V22.5C28.1378 21.8088 27.5791 21.25 26.8878 21.25ZM25.6378 23.75V26.25H8.13782V23.75H25.6378ZM8.13782 55V28.75H25.6378V55H8.13782Z" fill="#FF9F00"/>
<path d="M18.1378 48.75H23.1378V51.25H18.1378V48.75Z" fill="#FF9F00"/>
<path d="M15.6378 31.25H18.1378V33.75H15.6378V31.25Z" fill="#FF9F00"/>
<path d="M10.6378 31.25H13.1378V33.75H10.6378V31.25Z" fill="#FF9F00"/>
<path d="M71.888 13.75C70.2605 13.75 68.8855 14.7988 68.368 16.25H61.888C61.4955 16.25 61.1242 16.435 60.888 16.75L57.138 21.75L59.138 23.2488L62.513 18.7488H68.368C68.8855 20.2 70.2605 21.2488 71.888 21.2488C73.9555 21.2488 75.638 19.5662 75.638 17.4987C75.638 15.4312 73.9555 13.75 71.888 13.75ZM71.888 18.75C71.198 18.75 70.638 18.19 70.638 17.5C70.638 16.81 71.198 16.25 71.888 16.25C72.578 16.25 73.138 16.81 73.138 17.5C73.138 18.19 72.578 18.75 71.888 18.75Z" fill="#FF9F00"/>
<path d="M71.8878 0C70.2603 0 68.8853 1.04875 68.3678 2.5H44.3878C43.6966 2.5 43.1378 3.05875 43.1378 3.75V10H45.6378V5H68.3678C68.8853 6.45125 70.2603 7.5 71.8878 7.5C73.9553 7.5 75.6378 5.8175 75.6378 3.75C75.6378 1.6825 73.9553 0 71.8878 0ZM71.8878 5C71.1978 5 70.6378 4.44 70.6378 3.75C70.6378 3.06 71.1978 2.5 71.8878 2.5C72.5778 2.5 73.1378 3.06 73.1378 3.75C73.1378 4.44 72.5778 5 71.8878 5Z" fill="#FF9F00"/>
</svg>
