<svg width="72" height="80" viewBox="0 0 72 80" fill="none" xmlns="http://www.w3.org/2000/svg">;
<path d="M33.2671 44.6185H38.0079C38.6555 44.6185 39.1804 44.0935 39.1804 43.446C39.1804 42.7985 38.6555 42.2736 38.0079 42.2736H33.2671C32.6196 42.2736 32.0946 42.7985 32.0946 43.446C32.0946 44.0935 32.6194 44.6185 33.2671 44.6185Z" fill="#FF9F00"/>
<path d="M30.2831 14.7018C29.7908 14.2814 29.0506 14.3396 28.63 14.8319L16.4539 29.0878C16.0334 29.5803 16.0917 30.3203 16.584 30.7409C16.8048 30.9295 17.0756 31.0218 17.345 31.0218C17.6761 31.0218 18.0051 30.8822 18.2371 30.6108L30.4133 16.3548C30.8337 15.8624 30.7753 15.1223 30.2831 14.7018Z" fill="#FF9F00"/>
<path d="M16.5662 23.2178C16.7896 23.4164 17.0677 23.5141 17.3447 23.5141C17.668 23.5141 17.9899 23.3812 18.2214 23.1206L21.5126 19.4179C21.9428 18.9339 21.8992 18.1929 21.4152 17.7627C20.9311 17.3325 20.1901 17.3761 19.76 17.8601L16.4688 21.5628C16.0388 22.0466 16.0824 22.7876 16.5662 23.2178Z" fill="#FF9F00"/>
<path d="M64.6734 65.4609C64.3542 64.4541 63.4303 63.7777 62.3741 63.7777H22.7078C22.0603 63.7777 21.5353 64.3027 21.5353 64.9502C21.5353 65.5977 22.0603 66.1226 22.7078 66.1226H62.3743C62.4036 66.1226 62.4294 66.1416 62.4382 66.1694L66.0508 77.5678C66.0544 77.5791 66.061 77.6002 66.041 77.6277C66.0209 77.655 65.9987 77.655 65.9869 77.655H5.28787C5.27599 77.655 5.25395 77.655 5.23378 77.6277C5.21377 77.6002 5.22034 77.5791 5.22393 77.5678L8.83654 66.1694C8.84545 66.1414 8.87109 66.1226 8.90048 66.1226H17.4153C18.0628 66.1226 18.5877 65.5977 18.5877 64.9502C18.5877 64.3027 18.0628 63.7777 17.4153 63.7777H8.90064C7.84448 63.7777 6.92042 64.4541 6.60135 65.4609L2.98874 76.8593C2.75378 77.6005 2.88243 78.3854 3.34173 79.0128C3.80102 79.6401 4.51045 80 5.28787 80H65.9867C66.7643 80 67.4736 79.6401 67.9328 79.0128C68.3921 78.3854 68.5208 77.6005 68.2858 76.8593L64.6734 65.4609Z" fill="#FF9F00"/>
<path d="M66.5865 0H4.68878C2.10341 0 0 2.10341 0 4.68878V44.3987C0 46.9841 2.10341 49.0875 4.68878 49.0875H27.7109C27.6304 51.4431 27.399 55.3515 26.8942 57.5429H21.8476C21.2001 57.5429 20.6751 58.0678 20.6751 58.7153C20.6751 59.3629 21.2001 59.8878 21.8476 59.8878H49.428C50.0755 59.8878 50.6004 59.3629 50.6004 58.7153C50.6004 58.0678 50.0755 57.5429 49.428 57.5429H44.3814C43.8766 55.3515 43.6452 51.4431 43.5647 49.0875H66.5868C69.1722 49.0875 71.2756 46.9841 71.2756 44.3987V4.68878C71.2753 2.10341 69.1719 0 66.5865 0ZM29.2883 57.5429C29.8055 54.8925 29.9927 51.0086 30.0565 49.0875H41.2187C41.2824 51.0086 41.4696 54.8925 41.9869 57.5429H29.2883ZM68.9303 44.3987C68.9303 45.6911 67.8789 46.7426 66.5865 46.7426H4.68878C3.39641 46.7426 2.34494 45.6911 2.34494 44.3987V40.1495H68.9305L68.9303 44.3987ZM68.9303 37.8046H65.8503V20.498C65.8503 19.8505 65.3254 19.3256 64.6779 19.3256C64.0304 19.3256 63.5054 19.8505 63.5054 20.498V37.8046H7.76987V7.94808C7.76987 7.77722 7.90884 7.63824 8.07971 7.63824H63.1956C63.3664 7.63824 63.5054 7.77722 63.5054 7.94808V15.1333C63.5054 15.7808 64.0304 16.3058 64.6779 16.3058C65.3254 16.3058 65.8503 15.7808 65.8503 15.1333V7.94808C65.8503 6.48422 64.6594 5.2933 63.1956 5.2933H8.07971C6.61585 5.2933 5.42493 6.48422 5.42493 7.94808V37.8046H2.34494V4.68878C2.34494 3.39641 3.39641 2.34494 4.68878 2.34494H66.5865C67.8789 2.34494 68.9303 3.39641 68.9303 4.68878V37.8046Z" fill="#FF9F00"/>
<path d="M17.4158 68.6183H15.8248C15.1773 68.6183 14.6523 69.1433 14.6523 69.7908C14.6523 70.4383 15.1773 70.9632 15.8248 70.9632H17.4158C18.0633 70.9632 18.5882 70.4383 18.5882 69.7908C18.5882 69.1433 18.0633 68.6183 17.4158 68.6183Z" fill="#FF9F00"/>
<path d="M22.1887 70.9632H23.7796C24.4271 70.9632 24.9521 70.4383 24.9521 69.7908C24.9521 69.1433 24.4271 68.6183 23.7796 68.6183H22.1887C21.5411 68.6183 21.0162 69.1433 21.0162 69.7908C21.0162 70.4383 21.5411 70.9632 22.1887 70.9632Z" fill="#FF9F00"/>
<path d="M28.5524 70.9632H30.1433C30.7908 70.9632 31.3158 70.4383 31.3158 69.7908C31.3158 69.1433 30.7908 68.6183 30.1433 68.6183H28.5524C27.9048 68.6183 27.3799 69.1433 27.3799 69.7908C27.3799 70.4383 27.9048 70.9632 28.5524 70.9632Z" fill="#FF9F00"/>
<path d="M34.9165 70.9632H36.5075C37.155 70.9632 37.68 70.4383 37.68 69.7908C37.68 69.1433 37.155 68.6183 36.5075 68.6183H34.9165C34.269 68.6183 33.7441 69.1433 33.7441 69.7908C33.7441 70.4383 34.269 70.9632 34.9165 70.9632Z" fill="#FF9F00"/>
<path d="M41.2805 70.9632H42.8714C43.519 70.9632 44.0439 70.4383 44.0439 69.7908C44.0439 69.1433 43.519 68.6183 42.8714 68.6183H41.2805C40.633 68.6183 40.108 69.1433 40.108 69.7908C40.108 70.4383 40.633 70.9632 41.2805 70.9632Z" fill="#FF9F00"/>
<path d="M47.6443 70.9632H49.2352C49.8827 70.9632 50.4077 70.4383 50.4077 69.7908C50.4077 69.1433 49.8827 68.6183 49.2352 68.6183H47.6443C46.9967 68.6183 46.4718 69.1433 46.4718 69.7908C46.4718 70.4383 46.9967 70.9632 47.6443 70.9632Z" fill="#FF9F00"/>
<path d="M53.8596 70.9632H55.4506C56.0981 70.9632 56.623 70.4383 56.623 69.7908C56.623 69.1433 56.0981 68.6183 55.4506 68.6183H53.8596C53.2121 68.6183 52.6871 69.1433 52.6871 69.7908C52.6871 70.4383 53.2121 70.9632 53.8596 70.9632Z" fill="#FF9F00"/>
<path d="M17.4158 72.8147H15.8248C15.1773 72.8147 14.6523 73.3396 14.6523 73.9872C14.6523 74.6347 15.1773 75.1596 15.8248 75.1596H17.4158C18.0633 75.1596 18.5882 74.6347 18.5882 73.9872C18.5882 73.3396 18.0633 72.8147 17.4158 72.8147Z" fill="#FF9F00"/>
<path d="M22.1887 75.1596H23.7796C24.4271 75.1596 24.9521 74.6347 24.9521 73.9872C24.9521 73.3396 24.4271 72.8147 23.7796 72.8147H22.1887C21.5411 72.8147 21.0162 73.3396 21.0162 73.9872C21.0162 74.6347 21.5411 75.1596 22.1887 75.1596Z" fill="#FF9F00"/>
<path d="M28.5524 75.1596H30.1433C30.7908 75.1596 31.3158 74.6347 31.3158 73.9872C31.3158 73.3396 30.7908 72.8147 30.1433 72.8147H28.5524C27.9048 72.8147 27.3799 73.3396 27.3799 73.9872C27.3799 74.6347 27.9048 75.1596 28.5524 75.1596Z" fill="#FF9F00"/>
<path d="M34.9165 75.1596H36.5075C37.155 75.1596 37.68 74.6347 37.68 73.9872C37.68 73.3396 37.155 72.8147 36.5075 72.8147H34.9165C34.269 72.8147 33.7441 73.3396 33.7441 73.9872C33.7441 74.6347 34.269 75.1596 34.9165 75.1596Z" fill="#FF9F00"/>
<path d="M41.2805 75.1596H42.8714C43.519 75.1596 44.0439 74.6347 44.0439 73.9872C44.0439 73.3396 43.519 72.8147 42.8714 72.8147H41.2805C40.633 72.8147 40.108 73.3396 40.108 73.9872C40.108 74.6347 40.633 75.1596 41.2805 75.1596Z" fill="#FF9F00"/>
<path d="M47.6443 75.1596H49.2352C49.8827 75.1596 50.4077 74.6347 50.4077 73.9872C50.4077 73.3396 49.8827 72.8147 49.2352 72.8147H47.6443C46.9967 72.8147 46.4718 73.3396 46.4718 73.9872C46.4718 74.6347 46.9967 75.1596 47.6443 75.1596Z" fill="#FF9F00"/>
<path d="M53.8596 75.1596H55.4506C56.0981 75.1596 56.623 74.6347 56.623 73.9872C56.623 73.3396 56.0981 72.8147 55.4506 72.8147H53.8596C53.2121 72.8147 52.6871 73.3396 52.6871 73.9872C52.6871 74.6347 53.2121 75.1596 53.8596 75.1596Z" fill="#FF9F00"/>
</svg>
