<svg width="79" height="78" fill="none" xmlns="http://www.w3.org/2000/svg"><path d="M40.888 70h20v2.5h-20V70Zm17.5-5h2.5v2.5h-2.5V65Zm-17.5 0h15v2.5h-15V65Zm-10 0h-7.5a2.503 2.503 0 0 0-2.5 2.5V70c0 1.379 1.121 2.5 2.5 2.5h7.5c1.379 0 2.5-1.121 2.5-2.5v-2.5c0-1.379-1.121-2.5-2.5-2.5Zm-7.5 5v-2.5h7.5l.001 2.5h-7.501Zm-7.5-5h-7.5a2.502 2.502 0 0 0-2.5 2.5V70c0 1.379 1.121 2.5 2.5 2.5h7.5c1.379 0 2.5-1.121 2.5-2.5v-2.5c0-1.379-1.121-2.5-2.5-2.5Zm-7.5 5v-2.5h7.5l.001 2.5H8.388Zm32.5-10h20v2.5h-20V60Zm-11.25-15h2.5v12.5h-2.5V60h7.5v-2.5h-2.5V45h2.5v-2.5h-7.5V45Zm-8.75 7.5h2.5c2.757 0 5-2.242 5-5s-2.243-5-5-5h-5V60h2.5v-7.5Zm0-7.5h2.5c1.379 0 2.5 1.121 2.5 2.5s-1.121 2.5-2.5 2.5h-2.5v-5Zm-12.5 10h5v5h2.5V47.5c0-2.758-2.243-5-5-5-2.758 0-5 2.242-5 5V60h2.5v-5Zm2.5-10c1.379 0 2.5 1.121 2.5 2.5v5h-5v-5c0-1.379 1.121-2.5 2.5-2.5Zm30 12.5h20v-20h-20v20Zm2.5-17.5h15v15h-15V40Zm-27.5-10h2.5v2.5h-2.5V30Zm-5 0h2.5v2.5h-2.5V30Zm-5 0h2.5v2.5h-2.5V30Z" fill="#FF9F00"/><path d="M78.388 18.75C78.388 8.411 69.977 0 59.638 0c-7.179 0-13.421 4.06-16.57 10H32.655l-2.5-2.5h-9.497C20.14 6.049 18.765 5 17.138 5a3.755 3.755 0 0 0-3.75 3.75 3.755 3.755 0 0 0 3.75 3.75c1.627 0 3.002-1.049 3.52-2.5h8.462l2.5 2.5h10.362a18.64 18.64 0 0 0-1.094 6.25c0 .42.041.834.07 1.25h-3.301l-2.5-2.5h-9.498c-.517-1.451-1.892-2.5-3.52-2.5a3.755 3.755 0 0 0-3.75 3.75 3.755 3.755 0 0 0 3.75 3.75c1.628 0 3.003-1.049 3.52-2.5h8.463l2.5 2.5h4.666c.175.845.401 1.68.695 2.5H4.638a3.755 3.755 0 0 0-3.75 3.75v45a3.755 3.755 0 0 0 3.75 3.75h57.5a3.755 3.755 0 0 0 3.75-3.75V36.406c7.401-2.625 12.5-9.745 12.5-17.656ZM17.138 10c-.689 0-1.25-.561-1.25-1.25s.561-1.25 1.25-1.25 1.25.561 1.25 1.25-.561 1.25-1.25 1.25Zm5 10c-.689 0-1.25-.561-1.25-1.25s.561-1.25 1.25-1.25 1.25.561 1.25 1.25-.561 1.25-1.25 1.25Zm31.771 5a36.338 36.338 0 0 1-.492-5h12.43c-.07 2.27-.32 4.457-.762 6.459A3.733 3.733 0 0 0 62.138 25h-8.229Zm-10.457-7.5a16.133 16.133 0 0 1 2.515-7.5h5.872c-.527 2.244-.847 4.775-.924 7.5h-7.463Zm10.98-7.5h10.412c.56 2.151.931 4.682 1.018 7.5H53.415c.085-2.818.458-5.349 1.017-7.5Zm5.206-7.5c1.554 0 3.197 1.859 4.41 5h-8.821c1.213-3.141 2.857-5 4.41-5Zm16.186 15H68.36c-.076-2.725-.396-5.256-.923-7.5h5.872a16.12 16.12 0 0 1 2.515 7.5ZM68.347 20h7.488a16.234 16.234 0 0 1-2.54 7.5h-5.897c.551-2.314.871-4.855.949-7.5Zm2.99-12.5H66.72c-.55-1.619-1.217-3.026-1.985-4.169 2.535.84 4.79 2.286 6.602 4.169ZM54.54 3.331c-.768 1.143-1.436 2.55-1.986 4.169h-4.616a16.275 16.275 0 0 1 6.602-4.169ZM43.458 20h7.46c.05 1.72.2 3.392.455 5h-6.691a15.968 15.968 0 0 1-1.224-5Zm-38.82 7.5h57.5c.689 0 1.25.561 1.25 1.25v3.75H22.87l-2.5 2.5H3.388v-6.25c0-.689.561-1.25 1.25-1.25Zm57.5 47.5h-57.5c-.689 0-1.25-.561-1.25-1.25V37.5h18.017l2.5-2.5h39.483v38.75c0 .689-.561 1.25-1.25 1.25Zm3.75-41.269V30h5.426a16.198 16.198 0 0 1-5.426 3.731Z" fill="#FF9F00"/><path d="M60.888 12.5h2.5V15h-2.5v-2.5Zm-5 0h2.5V15h-2.5v-2.5Z" fill="#FF9F00"/></svg>