<svg width="76" height="75" fill="none" xmlns="http://www.w3.org/2000/svg"><path d="M71.888 67.5c-1.628 0-3.003 1.049-3.52 2.5h-22.73v-5h-2.5v6.25c0 .691.559 1.25 1.25 1.25h23.98c.517 1.451 1.892 2.5 3.52 2.5a3.755 3.755 0 0 0 3.75-3.75 3.755 3.755 0 0 0-3.75-3.75Zm0 5a1.25 1.25 0 1 1 0-2.5 1.25 1.25 0 0 1 0 2.5Zm0-38.75c-1.628 0-3.003 1.049-3.52 2.5h-7.73v-2.5a1.25 1.25 0 0 0-1.25-1.25h-2.13c-1.693 0-2.75-1.096-3.175-2.121-.425-1.025-.453-2.549.745-3.747l1.506-1.506a1.249 1.249 0 0 0 0-1.767l-5.304-5.304a1.249 1.249 0 0 0-1.767 0l-1.506 1.506c-1.2 1.199-2.724 1.17-3.747.745-1.025-.425-2.12-1.482-2.12-3.175V15c0-.691-.56-1.25-1.25-1.25h-7.73c-.518-1.451-1.893-2.5-3.52-2.5H4.387A3.755 3.755 0 0 0 .638 15v45a3.755 3.755 0 0 0 3.75 3.75h25c1.627 0 3.002-1.049 3.52-2.5h7.73a1.25 1.25 0 0 0 1.25-1.25v-2.13c0-1.692 1.096-2.75 2.121-3.175 1.023-.424 2.548-.454 3.746.745l1.507 1.506a1.249 1.249 0 0 0 1.767 0l5.304-5.303a1.249 1.249 0 0 0 0-1.768l-1.506-1.506c-1.198-1.198-1.17-2.721-.745-3.746.425-1.026 1.482-2.123 3.176-2.123h2.13a1.25 1.25 0 0 0 1.25-1.25v-2.5h7.73c.517 1.451 1.892 2.5 3.52 2.5a3.755 3.755 0 0 0 3.75-3.75 3.755 3.755 0 0 0-3.75-3.75Zm-38.75-6.841a11.16 11.16 0 0 1 3.75-.659c6.204 0 11.25 5.046 11.25 11.25s-5.046 11.25-11.25 11.25a11.16 11.16 0 0 1-3.75-.659V26.91ZM20.868 13.75c-.14.393-.23.81-.23 1.25 0 .69-.56 1.25-1.25 1.25h-5c-.69 0-1.25-.56-1.25-1.25 0-.44-.09-.857-.23-1.25h7.96ZM30.638 60c0 .69-.56 1.25-1.25 1.25h-25c-.69 0-1.25-.56-1.25-1.25V15c0-.69.56-1.25 1.25-1.25h5c.69 0 1.25.56 1.25 1.25a3.755 3.755 0 0 0 3.75 3.75h5a3.755 3.755 0 0 0 3.75-3.75c0-.69.56-1.25 1.25-1.25h5c.69 0 1.25.56 1.25 1.25v45Zm27.5-20h-.88c-2.448 0-4.549 1.404-5.486 3.665-.937 2.261-.443 4.741 1.287 6.471l.623.623-3.537 3.536-.622-.623c-1.731-1.732-4.209-2.222-6.471-1.287-2.26.936-3.664 3.038-3.664 5.485v.88h-6.25v-8.039c1.217.348 2.47.539 3.75.539 7.581 0 13.75-6.169 13.75-13.75s-6.169-13.75-13.75-13.75c-1.28 0-2.533.191-3.75.539V16.25h6.25v.88c0 2.448 1.404 4.549 3.665 5.486 2.264.938 4.742.443 6.471-1.287l.623-.623 3.536 3.537-.623.622c-1.73 1.73-2.223 4.21-1.287 6.471.936 2.26 3.037 3.664 5.485 3.664h.88v5Zm13.75-1.25a1.25 1.25 0 1 1 0-2.5 1.25 1.25 0 0 1 0 2.5Zm0 15c-1.628 0-3.003 1.049-3.52 2.5h-5.855l-3.375-4.5-2 1.5 3.75 5c.235.315.606.5 1 .5h6.48c.517 1.451 1.892 2.5 3.52 2.5a3.755 3.755 0 0 0 3.75-3.75 3.755 3.755 0 0 0-3.75-3.75Zm0 5a1.25 1.25 0 1 1 0-2.5 1.25 1.25 0 0 1 0 2.5Z" fill="#FF9F00"/><path d="M26.888 21.25h-20a1.25 1.25 0 0 0-1.25 1.25v33.75c0 .691.559 1.25 1.25 1.25h20a1.25 1.25 0 0 0 1.25-1.25V22.5a1.25 1.25 0 0 0-1.25-1.25Zm-1.25 2.5v2.5h-17.5v-2.5h17.5ZM8.138 55V28.75h17.5V55h-17.5Z" fill="#FF9F00"/><path d="M18.138 48.75h5v2.5h-5v-2.5Zm-2.5-17.5h2.5v2.5h-2.5v-2.5Zm-5 0h2.5v2.5h-2.5v-2.5Zm61.25-17.5c-1.628 0-3.003 1.049-3.52 2.5h-6.48a1.25 1.25 0 0 0-1 .5l-3.75 5 2 1.499 3.375-4.5h5.855c.517 1.451 1.892 2.5 3.52 2.5a3.755 3.755 0 0 0 3.75-3.75 3.753 3.753 0 0 0-3.75-3.749Zm0 5a1.25 1.25 0 1 1 0-2.5 1.25 1.25 0 0 1 0 2.5Zm0-18.75c-1.628 0-3.003 1.049-3.52 2.5h-23.98a1.25 1.25 0 0 0-1.25 1.25V10h2.5V5h22.73c.517 1.451 1.892 2.5 3.52 2.5a3.755 3.755 0 0 0 3.75-3.75A3.755 3.755 0 0 0 71.888 0Zm0 5a1.25 1.25 0 1 1 0-2.5 1.25 1.25 0 0 1 0 2.5Z" fill="#FF9F00"/></svg>