<svg width="72" height="80" fill="none" xmlns="http://www.w3.org/2000/svg">;<path d="M33.267 44.618h4.74a1.173 1.173 0 0 0 0-2.344h-4.74a1.172 1.172 0 1 0 0 2.344Zm-2.984-29.916a1.173 1.173 0 0 0-1.653.13L16.454 29.088a1.173 1.173 0 0 0 1.783 1.523l12.176-14.256a1.173 1.173 0 0 0-.13-1.653Zm-13.717 8.516a1.17 1.17 0 0 0 1.655-.097l3.292-3.703a1.172 1.172 0 1 0-1.753-1.558l-3.291 3.703a1.173 1.173 0 0 0 .097 1.655ZM64.673 65.46a2.403 2.403 0 0 0-2.299-1.682H22.708a1.173 1.173 0 0 0 0 2.345h39.666c.03 0 .055.019.064.046l3.613 11.399a.06.06 0 0 1-.01.06c-.02.027-.042.027-.054.027h-60.7c-.011 0-.033 0-.053-.027a.06.06 0 0 1-.01-.06l3.613-11.399a.067.067 0 0 1 .063-.046h8.515a1.172 1.172 0 1 0 0-2.345H8.901c-1.057 0-1.98.676-2.3 1.683L2.99 76.859a2.388 2.388 0 0 0 .353 2.154A2.383 2.383 0 0 0 5.288 80h60.699a2.39 2.39 0 0 0 1.946-.987c.46-.628.588-1.413.353-2.154l-3.613-11.398Z" fill="#FF9F00"/><path d="M66.587 0H4.688A4.694 4.694 0 0 0 0 4.689v39.71a4.694 4.694 0 0 0 4.689 4.688H27.71c-.08 2.356-.312 6.264-.817 8.456h-5.046a1.172 1.172 0 1 0 0 2.345h27.58a1.172 1.172 0 0 0 0-2.345H44.38c-.504-2.191-.736-6.1-.816-8.456h23.022a4.694 4.694 0 0 0 4.689-4.688V4.689A4.695 4.695 0 0 0 66.586 0ZM29.288 57.543c.517-2.65.705-6.534.768-8.456H41.22c.063 1.922.25 5.805.768 8.456h-12.7ZM68.93 44.399a2.347 2.347 0 0 1-2.344 2.344H4.69a2.347 2.347 0 0 1-2.344-2.344v-4.25H68.93v4.25Zm0-6.594h-3.08V20.498a1.172 1.172 0 1 0-2.345 0v17.307H7.77V7.948c0-.17.139-.31.31-.31h55.116c.17 0 .31.14.31.31v7.185a1.173 1.173 0 0 0 2.344 0V7.948a2.658 2.658 0 0 0-2.654-2.655H8.08a2.658 2.658 0 0 0-2.655 2.655v29.857h-3.08V4.689a2.347 2.347 0 0 1 2.344-2.344h61.898a2.346 2.346 0 0 1 2.343 2.344v33.116ZM17.416 68.618h-1.591a1.173 1.173 0 0 0 0 2.345h1.59a1.172 1.172 0 1 0 0-2.345Zm4.773 2.345h1.59a1.172 1.172 0 1 0 0-2.345h-1.59a1.173 1.173 0 0 0 0 2.345Zm6.363 0h1.591a1.172 1.172 0 1 0 0-2.345h-1.59a1.173 1.173 0 0 0 0 2.345Zm6.364 0h1.592a1.172 1.172 0 1 0 0-2.345h-1.592a1.172 1.172 0 0 0 0 2.345Zm6.364 0h1.591a1.172 1.172 0 1 0 0-2.345h-1.59a1.173 1.173 0 0 0 0 2.345Zm6.364 0h1.591a1.172 1.172 0 1 0 0-2.345h-1.59a1.173 1.173 0 0 0 0 2.345Zm6.216 0h1.59a1.172 1.172 0 1 0 0-2.345h-1.59a1.173 1.173 0 0 0 0 2.345Zm-36.444 1.852h-1.591a1.173 1.173 0 0 0 0 2.345h1.59a1.172 1.172 0 1 0 0-2.345Zm4.773 2.345h1.59a1.172 1.172 0 1 0 0-2.345h-1.59a1.172 1.172 0 1 0 0 2.345Zm6.363 0h1.591a1.172 1.172 0 1 0 0-2.345h-1.59a1.172 1.172 0 1 0 0 2.345Zm6.364 0h1.592a1.172 1.172 0 1 0 0-2.345h-1.592a1.172 1.172 0 0 0 0 2.345Zm6.364 0h1.591a1.172 1.172 0 1 0 0-2.345h-1.59a1.173 1.173 0 0 0 0 2.345Zm6.364 0h1.591a1.172 1.172 0 1 0 0-2.345h-1.59a1.172 1.172 0 1 0 0 2.345Zm6.216 0h1.59a1.172 1.172 0 1 0 0-2.345h-1.59a1.173 1.173 0 0 0 0 2.345Z" fill="#FF9F00"/></svg>