<svg width="81" height="80" fill="none" xmlns="http://www.w3.org/2000/svg"><path d="M68.971 63.33H42.304a1.667 1.667 0 0 0 0 3.333h26.667a1.667 1.667 0 0 0 0-3.333Zm0 6.666H42.304a1.667 1.667 0 0 0 0 3.334h26.667a1.667 1.667 0 0 0 0-3.334ZM12.305 63.33c-2.757 0-5 2.243-5 5 0 2.756 2.243 5 5 5 2.756 0 5-2.244 5-5 0-2.757-2.244-5-5-5Zm0 6.666a1.667 1.667 0 1 1 0-3.335 1.667 1.667 0 0 1 0 3.335Zm0-26.666c-2.757 0-5 2.243-5 5 0 2.756 2.243 5 5 5 2.756 0 5-2.244 5-5 0-2.757-2.244-5-5-5Zm0 6.666a1.667 1.667 0 1 1 0-3.335 1.667 1.667 0 0 1 0 3.335Zm56.666-20H42.304a1.667 1.667 0 0 0 0 3.334h26.667a1.667 1.667 0 0 0 0-3.334Z" fill="#FF9F00"/><path d="M80.638 31.663v-6.666c0-1.6-.477-3.084-1.264-4.357-.023-.047-.026-.1-.053-.143L69.015 3.93A8.285 8.285 0 0 0 61.938 0h-42.59a8.28 8.28 0 0 0-7.077 3.93L1.965 20.497c-.017.026-.017.056-.034.086a8.267 8.267 0 0 0-1.293 4.414v6.666c0 2.734 1.343 5.147 3.387 6.667C1.98 39.853.638 42.263.638 44.997v6.666c0 2.734 1.343 5.147 3.387 6.667C1.98 59.853.638 62.263.638 64.997v6.666c0 4.594 3.74 8.334 8.333 8.334h63.333c4.594 0 8.334-3.74 8.334-8.334v-6.666c0-2.734-1.344-5.147-3.387-6.667 2.043-1.52 3.387-3.933 3.387-6.667v-6.666c0-2.734-1.344-5.147-3.387-6.667 2.043-1.52 3.387-3.93 3.387-6.667ZM15.1 5.69a4.965 4.965 0 0 1 4.243-2.36h42.59c1.74 0 3.327.883 4.244 2.36l6.876 11.05c-.25-.023-.493-.077-.75-.077H8.971c-.257 0-.497.054-.747.077l6.877-11.05Zm62.204 59.307v6.666c0 2.757-2.244 5-5 5H8.97c-2.757 0-5-2.243-5-5v-6.666c0-2.757 2.243-5 5-5h63.333c2.757 0 5 2.243 5 5Zm0-20v6.666c0 2.757-2.244 5-5 5H8.97c-2.757 0-5-2.243-5-5v-6.666c0-2.757 2.243-5 5-5h63.333c2.757 0 5 2.243 5 5Zm0-13.334c0 2.757-2.244 5-5 5H8.97c-2.757 0-5-2.243-5-5v-6.666c0-2.757 2.243-5 5-5h63.333c2.757 0 5 2.243 5 5v6.666Z" fill="#FF9F00"/><path d="M68.971 23.33H42.304a1.667 1.667 0 0 0 0 3.333h26.667a1.667 1.667 0 0 0 0-3.333Zm0 26.666H42.304a1.667 1.667 0 0 0 0 3.334h26.667a1.667 1.667 0 0 0 0-3.334Zm0-6.666H42.304a1.667 1.667 0 0 0 0 3.333h26.667a1.667 1.667 0 0 0 0-3.333Zm-56.666-20c-2.757 0-5 2.243-5 5 0 2.756 2.243 5 5 5 2.756 0 5-2.244 5-5 0-2.757-2.244-5-5-5Zm0 6.666a1.667 1.667 0 1 1 0-3.335 1.667 1.667 0 0 1 0 3.335Z" fill="#FF9F00"/></svg>