<svg width="11" height="10" viewBox="0 0 11 10" fill="none" xmlns="http://www.w3.org/2000/svg">
<path d="M5.10223 7.88086C5.3719 7.88086 5.59051 7.66225 5.59051 7.39258C5.59051 7.12291 5.3719 6.9043 5.10223 6.9043C4.83256 6.9043 4.61395 7.12291 4.61395 7.39258C4.61395 7.66225 4.83256 7.88086 5.10223 7.88086Z" fill="currentColor"/>
<path d="M5.10223 0C2.33887 0 0.102234 2.23627 0.102234 5C0.102234 7.76336 2.3385 10 5.10223 10C7.86559 10 10.1022 7.76373 10.1022 5C10.1022 2.23664 7.86596 0 5.10223 0ZM5.10223 9.21875C2.77065 9.21875 0.883484 7.33189 0.883484 5C0.883484 2.66842 2.77034 0.78125 5.10223 0.78125C7.43382 0.78125 9.32098 2.66811 9.32098 5C9.32098 7.33158 7.43413 9.21875 5.10223 9.21875Z" fill="currentColor"/>
<path d="M5.10223 2.50977C4.24067 2.50977 3.53973 3.2107 3.53973 4.07227C3.53973 4.28801 3.71462 4.46289 3.93036 4.46289C4.1461 4.46289 4.32098 4.28801 4.32098 4.07227C4.32098 3.64148 4.67145 3.29102 5.10223 3.29102C5.53302 3.29102 5.88348 3.64148 5.88348 4.07227C5.88348 4.50305 5.53302 4.85352 5.10223 4.85352C4.88649 4.85352 4.71161 5.0284 4.71161 5.24414V6.2207C4.71161 6.43645 4.88649 6.61133 5.10223 6.61133C5.31798 6.61133 5.49286 6.43645 5.49286 6.2207V5.58533C6.16602 5.41145 6.66473 4.799 6.66473 4.07227C6.66473 3.2107 5.9638 2.50977 5.10223 2.50977Z" fill="currentColor"/>
</svg>
