<svg width="11" height="10" viewBox="0 0 11 10" fill="none" xmlns="http://www.w3.org/2000/svg">
<path fill-rule="evenodd" clip-rule="evenodd" d="M3.30457 0H7.05457C8.78019 0 10.1796 1.39938 10.1796 3.125V6.875C10.1796 8.60062 8.78019 10 7.05457 10H3.30457C1.57894 10 0.179565 8.60062 0.179565 6.875V3.125C0.179565 1.39938 1.57894 0 3.30457 0ZM7.05457 9.0625C8.26082 9.0625 9.24207 8.08125 9.24207 6.875V3.125C9.24207 1.91875 8.26082 0.9375 7.05457 0.9375H3.30457C2.09832 0.9375 1.11707 1.91875 1.11707 3.125V6.875C1.11707 8.08125 2.09832 9.0625 3.30457 9.0625H7.05457Z" fill="currentColor"/>
<path fill-rule="evenodd" clip-rule="evenodd" d="M2.67957 5C2.67957 3.61937 3.79894 2.5 5.17957 2.5C6.56019 2.5 7.67957 3.61937 7.67957 5C7.67957 6.38063 6.56019 7.5 5.17957 7.5C3.79894 7.5 2.67957 6.38063 2.67957 5ZM3.61707 5C3.61707 5.86125 4.31832 6.5625 5.17957 6.5625C6.04082 6.5625 6.74207 5.86125 6.74207 5C6.74207 4.13813 6.04082 3.4375 5.17957 3.4375C4.31832 3.4375 3.61707 4.13813 3.61707 5Z" fill="currentColor"/>
<path d="M8.30457 2.1875C8.30457 2.36009 8.16465 2.5 7.99207 2.5C7.81948 2.5 7.67957 2.36009 7.67957 2.1875C7.67957 2.01491 7.81948 1.875 7.99207 1.875C8.16465 1.875 8.30457 2.01491 8.30457 2.1875Z" fill="currentColor"/>
</svg>
