<svg width="11" height="10" viewBox="0 0 11 10" fill="none" xmlns="http://www.w3.org/2000/svg">
<path d="M7.57408 5.68351C6.90128 4.87118 6.05087 4.42381 5.17944 4.42381C4.30802 4.42381 3.45759 4.87118 2.78483 5.68351C2.1801 6.41367 1.81907 7.33388 1.81907 8.14508C1.81907 8.53913 1.93953 8.83928 2.17711 9.03722C2.41159 9.23261 2.72118 9.2987 3.06656 9.29868C3.43407 9.29868 3.84215 9.22384 4.2431 9.15029C4.59346 9.08601 4.92439 9.02531 5.17946 9.02531C5.39961 9.02531 5.71002 9.08293 6.03858 9.14392C6.80648 9.2865 7.67685 9.44805 8.17963 9.03002C8.41865 8.83129 8.53983 8.53354 8.53983 8.14508C8.53985 7.33388 8.17883 6.41367 7.57408 5.68351Z" fill="currentColor"/>
<path d="M7.64283 1.27237C7.39667 0.909434 7.04417 0.701294 6.67573 0.701294C6.30726 0.701294 5.95478 0.909453 5.70862 1.27237C5.48249 1.60579 5.35794 2.04363 5.35794 2.50526C5.35794 2.96689 5.48247 3.40473 5.70862 3.73814C5.95478 4.10106 6.30728 4.30922 6.67573 4.30922C7.04419 4.30922 7.39667 4.10106 7.64283 3.73814C7.86896 3.40473 7.99351 2.96689 7.99351 2.50526C7.99351 2.04363 7.86898 1.60577 7.64283 1.27237Z" fill="currentColor"/>
<path d="M10.1213 4.10397C10.0221 3.7664 9.80939 3.52111 9.52243 3.41332C9.2915 3.32658 9.03082 3.34129 8.7884 3.45474C8.45433 3.61107 8.18127 3.93387 8.03928 4.34037C7.92325 4.67255 7.90877 5.02365 7.99856 5.32906C8.09779 5.66663 8.3105 5.91191 8.59749 6.0197C8.6968 6.05701 8.80159 6.07554 8.90807 6.07554C9.04922 6.07554 9.19335 6.04295 9.33153 5.97828C9.66561 5.82196 9.93867 5.49915 10.0807 5.09267C10.1967 4.76051 10.2111 4.40937 10.1213 4.10397Z" fill="currentColor"/>
<path d="M4.65028 1.27237C4.40411 0.909434 4.05164 0.701294 3.68317 0.701294C3.3147 0.701294 2.96221 0.909453 2.71606 1.27237C2.48994 1.60579 2.36539 2.04363 2.36539 2.50526C2.36539 2.96689 2.48992 3.40473 2.71606 3.73814C2.96223 4.10108 3.3147 4.30924 3.68317 4.30924C4.05164 4.30924 4.40411 4.10108 4.65028 3.73814C4.87641 3.40473 5.00095 2.96691 5.00095 2.50526C5.00093 2.04363 4.87641 1.60577 4.65028 1.27237Z" fill="currentColor"/>
<path d="M2.31987 4.34034C2.17787 3.93384 1.90481 3.61106 1.57075 3.45473C1.32831 3.34128 1.06762 3.32659 0.836704 3.41331C0.549718 3.52112 0.337008 3.76641 0.237772 4.10396C0.147989 4.40936 0.162461 4.76049 0.278494 5.09265C0.420522 5.49914 0.693563 5.82195 1.02762 5.97827C1.16582 6.04294 1.30994 6.07554 1.45108 6.07554C1.55757 6.07554 1.66237 6.05698 1.76166 6.0197C2.04869 5.91189 2.26138 5.6666 2.36062 5.32905C2.45036 5.02366 2.43589 4.67254 2.31987 4.34034Z" fill="currentColor"/>
</svg>
