<svg width="11" height="10" viewBox="0 0 11 10" fill="none" xmlns="http://www.w3.org/2000/svg">
<path d="M10.1796 1.89938C9.80769 2.0625 9.41144 2.17062 8.99832 2.22312C9.42332 1.96937 9.74769 1.57062 9.90019 1.09C9.50394 1.32625 9.06644 1.49312 8.60019 1.58625C8.22394 1.18562 7.68769 0.9375 7.10269 0.9375C5.96769 0.9375 5.05394 1.85875 5.05394 2.98813C5.05394 3.15063 5.06769 3.30687 5.10144 3.45562C3.39707 3.3725 1.88894 2.55563 0.875815 1.31125C0.69894 1.61813 0.59519 1.96937 0.59519 2.3475C0.59519 3.0575 0.960815 3.68688 1.50582 4.05125C1.17644 4.045 0.853315 3.94937 0.579565 3.79875C0.579565 3.805 0.579565 3.81312 0.579565 3.82125C0.579565 4.8175 1.29019 5.645 2.22207 5.83562C2.05519 5.88125 1.87332 5.90313 1.68457 5.90313C1.55332 5.90313 1.42082 5.89562 1.29644 5.86812C1.56207 6.68 2.31582 7.27687 3.21207 7.29625C2.51457 7.84187 1.62894 8.17063 0.67019 8.17063C0.502065 8.17063 0.340815 8.16312 0.179565 8.1425C1.08769 8.72812 2.16394 9.0625 3.32457 9.0625C7.09707 9.0625 9.15956 5.9375 9.15956 3.22875C9.15956 3.13812 9.15644 3.05063 9.15207 2.96375C9.55894 2.675 9.90082 2.31437 10.1796 1.89938Z" fill="currentColor"/>
</svg>
