<svg width="9" height="10" viewBox="0 0 9 10" fill="none" xmlns="http://www.w3.org/2000/svg">
<path d="M5.56844 0.0772858C5.52258 0.0289917 5.45972 0 5.39456 0H1.49358C0.773743 0 0.179565 0.591812 0.179565 1.31157V8.68835C0.179565 9.40819 0.773743 10 1.49358 10H6.78822C7.50806 10 8.10224 9.40819 8.10224 8.68835V2.83089C8.10224 2.7681 8.07324 2.70775 8.0322 2.66182L5.56844 0.0772858ZM5.63847 0.852661L7.28825 2.58453H6.21579C5.89696 2.58453 5.63847 2.32849 5.63847 2.00966V0.852661ZM6.78822 9.51691H1.49358C1.04192 9.51691 0.662659 9.14253 0.662659 8.68835V1.31157C0.662659 0.859909 1.03947 0.483093 1.49358 0.483093H5.15538V2.00966C5.15538 2.59659 5.62886 3.06763 6.21579 3.06763H7.61914V8.68835C7.61914 9.14253 7.24233 9.51691 6.78822 9.51691Z" fill="currentColor"/>
<path d="M6.12879 7.85027H2.15296C2.02013 7.85027 1.91141 7.95892 1.91141 8.09182C1.91141 8.22465 2.02013 8.33337 2.15296 8.33337H6.13123C6.26406 8.33337 6.37278 8.22465 6.37278 8.09182C6.37278 7.95892 6.26406 7.85027 6.12879 7.85027Z" fill="currentColor"/>
<path d="M2.90414 5.25121L3.89932 4.18111V6.81882C3.89932 6.95165 4.00803 7.06037 4.14086 7.06037C4.27377 7.06037 4.38241 6.95165 4.38241 6.81882V4.18111L5.37759 5.25121C5.42588 5.30187 5.48875 5.3285 5.5539 5.3285C5.61189 5.3285 5.67231 5.30675 5.71816 5.26326C5.81483 5.17148 5.82208 5.01928 5.73029 4.92269L4.31481 3.40337C4.26888 3.35508 4.20609 3.32609 4.1385 3.32609C4.07082 3.32609 4.00803 3.35508 3.96218 3.40337L2.5467 4.92269C2.45492 5.01928 2.46217 5.17385 2.55875 5.26326C2.66023 5.35505 2.81236 5.3478 2.90414 5.25121Z" fill="currentColor"/>
</svg>
