<svg width="80" height="80" fill="none" xmlns="http://www.w3.org/2000/svg"><path d="m47.296 51.899 1.977 1.975 2.318 2.305.887.9 4.625-4.623-5.17-5.18-4.637 4.623Z" fill="#5D6D7E"/><path d="m61.613 52.469 15.533 15.526a6.442 6.442 0 0 1 0 9.119 6.448 6.448 0 0 1-9.122 0L52.491 61.587l9.122-9.118Z" fill="#FF9F00"/><path d="m59.421 54.33 1.267-1.291 15.66 15.868a5.373 5.373 0 0 1 0 7.51.902.902 0 0 1-.633.266.902.902 0 0 1-.634-.266.917.917 0 0 1 0-1.292 3.53 3.53 0 0 0 0-4.939L59.421 54.33Z" fill="#DDD"/><path d="m52.314 61.46 9.185-9.181-.684-.684a2.28 2.28 0 0 0-3.218 0l-5.968 5.965a2.262 2.262 0 0 0 0 3.204l.685.697ZM0 29.33C0 13.134 13.151 0 29.356 0 45.56 0 58.712 13.146 58.712 29.343c0 16.198-13.139 29.343-29.356 29.343C13.139 58.686 0 45.541 0 29.331c0 0 0 .012 0 0Z" fill="#34495E"/><path d="M29.42 55.356c14.341 0 25.96-11.613 25.96-25.949 0-14.336-11.619-25.95-25.96-25.95-14.33 0-25.961 11.614-25.961 25.95 0 14.323 11.618 25.95 25.96 25.95Z" fill="#5D6D7E"/><path d="M29.42 53.621c13.379 0 24.224-10.84 24.224-24.214 0-13.373-10.845-24.227-24.225-24.227-13.379 0-24.224 10.854-24.224 24.227 0 13.374 10.845 24.214 24.224 24.214Z" fill="#CEE2F2"/><path d="M45.573 15.679a35.767 35.767 0 0 0-11.517 7.206 8.043 8.043 0 0 0-2.787-.507h-2.927c-.95 0-1.9.178-2.787.507a35.766 35.766 0 0 0-11.517-7.206 1.843 1.843 0 0 0-2.37 1.076 1.757 1.757 0 0 0-.088.988 35.483 35.483 0 0 0 4.561 11.715 8.385 8.385 0 0 0 3.966 3.406l-1.305 11.854c0 3.432 4.929 6.206 11.01 6.206 6.082 0 11.01-2.774 11.01-6.206l-1.305-11.854a8.386 8.386 0 0 0 3.966-3.406 35.487 35.487 0 0 0 4.56-11.715c.19-1-.48-1.963-1.481-2.153a1.823 1.823 0 0 0-.976.089h-.013Z" fill="#FF9F00"/><path d="m40.81 44.718-.913-8.257-3.852-.76a6.876 6.876 0 0 1-5.13-4.407l-1.116-3.103-1.115 3.103a6.876 6.876 0 0 1-5.13 4.407l-3.852.76-.913 8.257c0 3.432 4.929 6.206 11.01 6.206 6.082 0 11.01-2.786 11.01-6.206Z" fill="#F3E8D4"/><path d="M34.677 37.031a.595.595 0 0 0-.595.595 1.849 1.849 0 0 1-1.837 1.85 1.855 1.855 0 0 1-1.812-1.47c.076-.05.127-.114.19-.177l1.393-1.786a1.043 1.043 0 0 0-.177-1.456 1.035 1.035 0 0 0-.633-.216h-2.788c-.57 0-1.039.47-1.039 1.039 0 .228.076.456.216.633l1.393 1.786c.051.063.114.127.178.177a1.844 1.844 0 0 1-3.649-.38.595.595 0 1 0-1.191 0 3.046 3.046 0 0 0 3.028 3.04 3.02 3.02 0 0 0 2.445-1.241 3.01 3.01 0 0 0 4.232.645 3.018 3.018 0 0 0 1.242-2.444.58.58 0 0 0-.596-.595Zm-.177-7.219c-.76 0-1.381.62-1.381 1.38v.976a1.388 1.388 0 0 0 2.775 0v-.975a1.395 1.395 0 0 0-1.394-1.38Zm-9.401 0c-.76 0-1.394.608-1.394 1.38v.976a1.388 1.388 0 0 0 2.775 0v-.975a1.392 1.392 0 0 0-1.381-1.38Z" fill="#2B1716"/><path d="M15.368 15.172a2.06 2.06 0 0 0-.418-.456 2.115 2.115 0 0 0-2.977.304l-.013.013a21.03 21.03 0 0 0-3.142 21.2 2.126 2.126 0 0 0 2.813 1.077 2.125 2.125 0 0 0 1.127-2.685 16.857 16.857 0 0 1 2.51-16.932c.582-.722.62-1.748.1-2.52Zm13.633-6.978a2.16 2.16 0 0 0-1.888-.95 21.09 21.09 0 0 0-9.337 2.8 2.126 2.126 0 0 0-.773 2.9 2.128 2.128 0 0 0 2.901.772 16.827 16.827 0 0 1 7.45-2.229 2.1 2.1 0 0 0 1.99-2.216v-.013c0-.38-.128-.747-.343-1.064Z" fill="#fff"/></svg>