<svg width="80" height="80" viewBox="0 0 80 80" fill="none" xmlns="http://www.w3.org/2000/svg">
<path d="M47.2964 51.8989L49.2729 53.8745L51.5914 56.1794L52.4783 57.0786L57.1028 52.4561L51.9335 47.2764L47.2964 51.8989Z" fill="#5D6D7E"/>
<path d="M61.6131 52.4688L77.1462 67.9953C79.6675 70.5155 79.6675 74.5934 77.1462 77.1136C74.6249 79.6338 70.5453 79.6338 68.024 77.1136L52.4908 61.5871L61.6131 52.4688Z" fill="#FF9F00"/>
<path d="M59.4213 54.3304L60.6882 53.0387L76.3481 68.9071C78.3879 70.9967 78.3879 74.3274 76.3481 76.417C76.1834 76.5816 75.9553 76.6829 75.7146 76.6829C75.4739 76.6829 75.2458 76.5816 75.0811 76.417C74.7264 76.0624 74.7264 75.4925 75.0811 75.1252C76.4241 73.7575 76.4241 71.5539 75.0811 70.1862L59.4213 54.3304Z" fill="#DDDDDD"/>
<path d="M52.3136 61.4605L61.4992 52.2788L60.815 51.595C59.9281 50.7085 58.4837 50.7085 57.5969 51.595L51.6294 57.5599C50.7425 58.4464 50.7425 59.8774 51.6294 60.7639L52.3136 61.4605Z" fill="#34495E"/>
<path d="M0 29.3306C0 13.1329 13.1512 0 29.3559 0C45.5605 0 58.7118 13.1456 58.7118 29.3432C58.7118 45.5409 45.5732 58.6864 29.3559 58.6864C13.1386 58.6864 0 45.5409 0 29.3306C0 29.3306 0 29.3432 0 29.3306Z" fill="#34495E"/>
<path d="M29.4192 55.3562C43.7614 55.3562 55.3796 43.7431 55.3796 29.4071C55.3796 15.0711 43.7614 3.45789 29.4192 3.45789C15.0897 3.45789 3.45886 15.0711 3.45886 29.4071C3.45886 43.7304 15.0771 55.3562 29.4192 55.3562Z" fill="#5D6D7E"/>
<path d="M29.4193 53.6213C42.7986 53.6213 53.6439 42.7806 53.6439 29.4071C53.6439 16.0336 42.7986 5.18025 29.4193 5.18025C16.04 5.18025 5.1947 16.0336 5.1947 29.4071C5.1947 42.7806 16.04 53.6213 29.4193 53.6213Z" fill="#CEE2F2"/>
<path d="M45.5733 15.6789C41.3036 17.3253 37.4013 19.7695 34.0564 22.8849C33.1696 22.5557 32.2193 22.3784 31.2691 22.3784H28.3424C27.3921 22.3784 26.4419 22.5557 25.555 22.8849C22.2102 19.7695 18.3079 17.3253 14.0382 15.6789C13.088 15.3243 12.0237 15.8056 11.6689 16.7554C11.5422 17.072 11.5169 17.4139 11.5803 17.7432C12.3911 21.8845 13.9368 25.861 16.1414 29.4577C17.0663 30.9901 18.4599 32.1805 20.107 32.8644L18.802 44.7182C18.802 48.1502 23.7306 50.9237 29.8121 50.9237C35.8936 50.9237 40.8221 48.1502 40.8221 44.7182L39.5171 32.8644C41.1642 32.1805 42.5579 30.9901 43.4828 29.4577C45.6873 25.861 47.233 21.8845 48.0439 17.7432C48.2339 16.7427 47.5624 15.7803 46.5615 15.5903C46.2321 15.527 45.89 15.565 45.5859 15.6789H45.5733Z" fill="#FF9F00"/>
<path d="M40.8094 44.7182L39.8972 36.4611L36.0455 35.7012C33.6763 35.2326 31.7378 33.561 30.9143 31.294L29.7993 28.1913L28.6844 31.294C27.8609 33.561 25.9224 35.2326 23.5531 35.7012L19.7015 36.4611L18.7893 44.7182C18.7893 48.1502 23.7179 50.9237 29.7993 50.9237C35.8808 50.9237 40.8094 48.1376 40.8094 44.7182Z" fill="#F3E8D4"/>
<path d="M34.6771 37.031C34.3477 37.031 34.0817 37.2969 34.0817 37.6262C34.0817 38.6393 33.2581 39.4752 32.2445 39.4752C31.3703 39.4752 30.6228 38.8673 30.4328 38.0061C30.5088 37.9555 30.5595 37.8922 30.6228 37.8288L32.0165 36.0432C32.3712 35.5872 32.2826 34.9414 31.8391 34.5868C31.6617 34.4475 31.4337 34.3715 31.2056 34.3715H28.4183C27.8481 34.3715 27.3793 34.8401 27.3793 35.4099C27.3793 35.6379 27.4554 35.8659 27.5947 36.0432L28.9884 37.8288C29.0391 37.8922 29.1024 37.9555 29.1658 38.0061C28.9631 39.0066 27.9875 39.6398 26.9866 39.4372C26.125 39.2599 25.5169 38.5 25.5169 37.6262C25.5169 37.2969 25.2508 37.031 24.9214 37.031C24.592 37.031 24.3259 37.2969 24.3259 37.6262C24.3259 39.2979 25.6816 40.653 27.354 40.6656C28.3169 40.6656 29.2291 40.2097 29.7993 39.4245C30.7875 40.7796 32.688 41.0709 34.031 40.0704C34.8165 39.5005 35.2726 38.5887 35.2726 37.6262C35.2726 37.2843 35.0066 37.0183 34.6771 37.031Z" fill="#2B1716"/>
<path d="M34.4998 29.8123C33.7396 29.8123 33.1188 30.4329 33.1188 31.1927V32.1679C33.1441 32.9277 33.7776 33.5356 34.5505 33.5103C35.2853 33.485 35.8681 32.9024 35.8935 32.1679V31.1927C35.8808 30.4202 35.26 29.8123 34.4998 29.8123Z" fill="#2B1716"/>
<path d="M25.0988 29.8123C24.3386 29.8123 23.7051 30.4202 23.7051 31.1927V32.1679C23.7304 32.9277 24.3639 33.5356 25.1368 33.5103C25.8716 33.485 26.4544 32.9024 26.4798 32.1679V31.1927C26.4671 30.4329 25.8589 29.8123 25.0988 29.8123Z" fill="#2B1716"/>
<path d="M15.3684 15.1724C15.2544 14.9951 15.1023 14.8431 14.9503 14.7165C14.0508 13.982 12.7078 14.1086 11.9729 15.0204L11.9602 15.0331C7.12038 20.9853 5.91675 29.1285 8.81813 36.2332C9.29958 37.3096 10.5539 37.7909 11.6308 37.3096C12.6571 36.8537 13.1512 35.6759 12.7584 34.6248C10.4525 28.9385 11.4154 22.467 15.2671 17.6926C15.8499 16.9707 15.8879 15.9449 15.3684 15.1724Z" fill="white"/>
<path d="M29.0011 8.19436C28.583 7.57381 27.8608 7.20655 27.1133 7.24454C23.8191 7.4345 20.6264 8.39699 17.7757 10.0434C16.7621 10.6259 16.42 11.9303 17.0028 12.9435C17.5856 13.9566 18.8906 14.2986 19.9042 13.716C22.1847 12.3989 24.7314 11.6391 27.354 11.4871C28.5196 11.4238 29.4065 10.4359 29.3432 9.27083V9.25816C29.3432 8.87824 29.2165 8.51097 29.0011 8.19436Z" fill="white"/>
</svg>
