<svg width="45" height="107" viewBox="0 0 45 107" fill="none" xmlns="http://www.w3.org/2000/svg">
<path d="M14.1666 107H4.99998C2.23853 107 0 104.754 0 101.984C0 99.2143 2.23853 96.9688 4.99998 96.9688H14.1666C18.3022 96.9688 21.6666 93.5939 21.6666 89.4453V66.875C21.6666 65.5448 22.1935 64.269 23.131 63.3283L32.9288 53.5L23.1312 43.6717C22.1935 42.731 21.6666 41.4552 21.6666 40.125V17.5547C21.6666 13.4061 18.3022 10.0312 14.1666 10.0312H4.99998C2.23853 10.0312 0 7.78571 0 5.01562C0 2.24554 2.23853 0 4.99998 0H14.1666C23.8162 0 31.6666 7.87516 31.6666 17.5547V38.0475L43.5355 49.9535C45.4882 51.9123 45.4882 55.0879 43.5355 57.0467L31.6666 68.9525V89.4453C31.6666 99.1248 23.8162 107 14.1666 107Z" fill="#2E4960"/>
</svg>
