<svg width="45" height="107" viewBox="0 0 45 107" fill="none" xmlns="http://www.w3.org/2000/svg">
<path d="M30.8334 107H40C42.7615 107 45 104.754 45 101.984C45 99.2143 42.7615 96.9688 40 96.9688H30.8334C26.6978 96.9688 23.3334 93.5939 23.3334 89.4453V66.875C23.3334 65.5448 22.8065 64.269 21.869 63.3283L12.0712 53.5L21.8688 43.6717C22.8065 42.731 23.3334 41.4552 23.3334 40.125V17.5547C23.3334 13.4061 26.6978 10.0312 30.8334 10.0312H40C42.7615 10.0312 45 7.78571 45 5.01562C45 2.24554 42.7615 0 40 0H30.8334C21.1838 0 13.3334 7.87516 13.3334 17.5547V38.0475L1.46453 49.9535C-0.488175 51.9123 -0.488175 55.0879 1.46453 57.0467L13.3334 68.9525V89.4453C13.3334 99.1248 21.1838 107 30.8334 107Z" fill="#2E4960"/>
</svg>
