<svg width="180" height="135" viewBox="0 0 180 135" fill="none" xmlns="http://www.w3.org/2000/svg">
<path d="M87.5 135C124.779 135 155 104.779 155 67.5C155 30.2208 124.779 0 87.5 0C50.2208 0 20 30.2208 20 67.5C20 104.779 50.2208 135 87.5 135Z" fill="#FFE14D"/>
<path d="M155 67.5C155 30.2803 124.72 0 87.5 0V135C124.72 135 155 104.72 155 67.5Z" fill="#FFBB33"/>
<path d="M87.5 118.916C59.15 118.916 36.084 95.85 36.084 67.5C36.084 39.15 59.15 16.084 87.5 16.084C115.85 16.084 138.916 39.15 138.916 67.5C138.916 95.85 115.85 118.916 87.5 118.916Z" fill="#FFBB33"/>
<path d="M138.916 67.5C138.916 39.15 115.85 16.084 87.5 16.084V118.916C115.85 118.916 138.916 95.85 138.916 67.5Z" fill="#E68A2E"/>
<path d="M91.4551 63.8265V48.1892C96.0039 49.3053 99.3652 52.2321 99.3652 55.5963C99.3652 57.7824 101.134 59.5513 103.32 59.5513C105.506 59.5513 107.275 57.7824 107.275 55.5963C107.275 47.9545 100.472 41.5652 91.4551 40.096V35.8209C91.4551 33.6348 89.6861 31.8658 87.5 31.8658C85.3139 31.8658 83.5449 33.6348 83.5449 35.8209V40.096C74.5276 41.5652 67.7246 47.9545 67.7246 55.5963C67.7246 63.238 74.5276 69.6273 83.5449 71.0965V86.7338C78.9961 85.6177 75.6348 82.6909 75.6348 79.3267C75.6348 77.1406 73.8658 75.3717 71.6797 75.3717C69.4936 75.3717 67.7246 77.1406 67.7246 79.3267C67.7246 86.9685 74.5276 93.3578 83.5449 94.827V99.1406C83.5449 101.327 85.3139 103.096 87.5 103.096C89.6861 103.096 91.4551 101.327 91.4551 99.1406V94.827C100.472 93.3578 107.275 86.9685 107.275 79.3267C107.275 71.685 100.472 65.2954 91.4551 63.8265ZM75.6348 55.5963C75.6348 52.2321 78.9961 49.3053 83.5449 48.1892V63.0033C78.9961 61.8869 75.6348 58.9602 75.6348 55.5963ZM91.4551 86.7338V71.9197C96.0039 73.0358 99.3652 75.9625 99.3652 79.3267C99.3652 82.6909 96.0039 85.6174 91.4551 86.7338Z" fill="#FFE14D"/>
<path d="M91.4551 99.1406V94.827C100.472 93.3578 107.275 86.9685 107.275 79.3267C107.275 71.685 100.472 65.2954 91.4551 63.8265V48.1892C96.0039 49.3053 99.3652 52.2321 99.3652 55.5963C99.3652 57.7824 101.134 59.5513 103.32 59.5513C105.506 59.5513 107.275 57.7824 107.275 55.5963C107.275 47.9545 100.472 41.5652 91.4551 40.096V35.8209C91.4551 33.6348 89.6861 31.8658 87.5 31.8658V103.096C89.6861 103.096 91.4551 101.327 91.4551 99.1406ZM91.4551 71.9197C96.0039 73.0358 99.3652 75.9625 99.3652 79.3267C99.3652 82.6909 96.0039 85.6174 91.4551 86.7338V71.9197Z" fill="#FFBB33"/>
<path d="M48.0432 129.861C39.7802 136.606 13.9796 136.606 5.88528 129.861C-2.37767 123.116 -1.53453 94.2797 5.88528 86.6913C13.3051 79.1029 40.6234 79.1029 48.0432 86.6913C55.463 94.2797 56.3062 123.116 48.0432 129.861Z" fill="#2E4960"/>
<path d="M42.9847 107.939C42.9847 109.625 41.6356 110.974 39.9493 110.974H29.8315V121.092C29.8315 122.779 28.4824 124.128 26.7961 124.128C25.1098 124.128 23.7608 122.779 23.7608 121.092V110.974H13.6428C11.9565 110.974 10.6074 109.625 10.6074 107.939C10.6074 106.253 11.9565 104.904 13.6428 104.904H23.7606V94.7859C23.7606 93.0996 25.1097 91.7505 26.796 91.7505C28.4823 91.7505 29.8314 93.0996 29.8314 94.7859V104.904H39.9492C41.6356 104.904 42.9847 106.253 42.9847 107.939Z" fill="white"/>
<path d="M121 92.8593V129.94C121 131.585 122.333 132.918 123.978 132.919H177.022C178.667 132.918 180 131.585 180 129.94V92.8593H121Z" fill="white"/>
<path d="M177.022 81.1206H123.978C122.333 81.121 121 82.4545 121 84.0993V93.9236H180V84.0993C180 82.4545 178.667 81.121 177.022 81.1206Z" fill="#FF9F00"/>
<path d="M130.797 78.0816C129.981 78.081 129.319 78.7423 129.318 79.5585V84.8742C129.34 85.6906 130.019 86.3354 130.835 86.314C131.622 86.2936 132.255 85.6608 132.275 84.8742V79.5675C132.279 78.7513 131.621 78.086 130.805 78.0816C130.803 78.0816 130.8 78.0816 130.797 78.0816Z" fill="#2E4960"/>
<path d="M143.933 78.0816C143.117 78.081 142.455 78.7423 142.454 79.5585V84.8742C142.475 85.6906 143.154 86.3354 143.971 86.314C144.757 86.2936 145.39 85.6608 145.411 84.8742V79.5675C145.415 78.7513 144.757 78.086 143.941 78.0816C143.938 78.0816 143.936 78.0816 143.933 78.0816Z" fill="#2E4960"/>
<path d="M157.067 78.0816C156.251 78.0816 155.59 78.7433 155.59 79.5595V84.8742C155.611 85.6906 156.29 86.3354 157.107 86.3142C157.893 86.2938 158.526 85.661 158.546 84.8742V79.5675C158.551 78.7513 157.893 78.086 157.077 78.0816C157.073 78.0816 157.07 78.0816 157.067 78.0816Z" fill="#2E4960"/>
<path d="M170.203 78.0816C169.386 78.0804 168.724 78.7412 168.723 79.5574V84.8742C168.744 85.6906 169.423 86.3354 170.24 86.3142C171.026 86.2938 171.659 85.661 171.68 84.8742V79.5675C171.684 78.7513 171.026 78.086 170.21 78.0816C170.207 78.0816 170.205 78.0816 170.203 78.0816Z" fill="#2E4960"/>
<path d="M159.168 103.251C154.127 100.442 150.5 105.071 150.5 105.071C150.5 105.071 146.874 100.442 141.832 103.251C136.024 106.489 137.753 120.234 150.5 124.524C163.247 120.233 164.976 106.489 159.168 103.251Z" fill="#2E4960"/>
</svg>
