<svg width="135" height="135" viewBox="0 0 135 135" fill="none" xmlns="http://www.w3.org/2000/svg">
<path d="M67.5 135C104.779 135 135 104.779 135 67.5C135 30.2208 104.779 0 67.5 0C30.2208 0 0 30.2208 0 67.5C0 104.779 30.2208 135 67.5 135Z" fill="#FFE14D"/>
<path d="M135 67.5C135 30.2803 104.72 0 67.5 0V135C104.72 135 135 104.72 135 67.5Z" fill="#FFBB33"/>
<path d="M67.5 118.916C39.15 118.916 16.084 95.85 16.084 67.5C16.084 39.15 39.15 16.084 67.5 16.084C95.85 16.084 118.916 39.15 118.916 67.5C118.916 95.85 95.85 118.916 67.5 118.916Z" fill="#FFBB33"/>
<path d="M118.916 67.5C118.916 39.15 95.85 16.084 67.5 16.084V118.916C95.85 118.916 118.916 95.85 118.916 67.5Z" fill="#E68A2E"/>
<path d="M71.4551 63.8265V48.1892C76.0039 49.3053 79.3652 52.2321 79.3652 55.5963C79.3652 57.7824 81.1342 59.5513 83.3203 59.5513C85.5064 59.5513 87.2754 57.7824 87.2754 55.5963C87.2754 47.9545 80.4724 41.5652 71.4551 40.096V35.8209C71.4551 33.6348 69.6861 31.8658 67.5 31.8658C65.3139 31.8658 63.5449 33.6348 63.5449 35.8209V40.096C54.5276 41.5652 47.7246 47.9545 47.7246 55.5963C47.7246 63.238 54.5276 69.6273 63.5449 71.0965V86.7338C58.9961 85.6177 55.6348 82.6909 55.6348 79.3267C55.6348 77.1406 53.8658 75.3717 51.6797 75.3717C49.4936 75.3717 47.7246 77.1406 47.7246 79.3267C47.7246 86.9685 54.5276 93.3578 63.5449 94.827V99.1406C63.5449 101.327 65.3139 103.096 67.5 103.096C69.6861 103.096 71.4551 101.327 71.4551 99.1406V94.827C80.4724 93.3578 87.2754 86.9685 87.2754 79.3267C87.2754 71.685 80.4724 65.2954 71.4551 63.8265ZM55.6348 55.5963C55.6348 52.2321 58.9961 49.3053 63.5449 48.1892V63.0033C58.9961 61.8869 55.6348 58.9602 55.6348 55.5963ZM71.4551 86.7338V71.9197C76.0039 73.0358 79.3652 75.9625 79.3652 79.3267C79.3652 82.6909 76.0039 85.6174 71.4551 86.7338Z" fill="#FFE14D"/>
<path d="M71.4551 99.1406V94.827C80.4724 93.3578 87.2754 86.9685 87.2754 79.3267C87.2754 71.685 80.4724 65.2954 71.4551 63.8265V48.1892C76.0039 49.3053 79.3652 52.2321 79.3652 55.5963C79.3652 57.7824 81.1342 59.5513 83.3203 59.5513C85.5064 59.5513 87.2754 57.7824 87.2754 55.5963C87.2754 47.9545 80.4724 41.5652 71.4551 40.096V35.8209C71.4551 33.6348 69.6861 31.8658 67.5 31.8658V103.096C69.6861 103.096 71.4551 101.327 71.4551 99.1406ZM71.4551 71.9197C76.0039 73.0358 79.3652 75.9625 79.3652 79.3267C79.3652 82.6909 76.0039 85.6174 71.4551 86.7338V71.9197Z" fill="#FFBB33"/>
</svg>
