<svg width="202" height="72" fill="none" xmlns="http://www.w3.org/2000/svg"><path d="M72.753 36.266h-5.46c-.156 0-.312 0-.546-.117 1.755-5.655 3.549-11.232 7.683-15.834.273.507.273.858.312 1.248.117.936.195 1.872.195 2.808 0 1.287-.117 2.574-.234 3.9l-.585 6.669c-.117 1.287-.078 1.287-1.365 1.326Zm4.602 19.851c1.287 0 2.574-.585 2.574-1.677 0-.858-.585-1.95-.78-3.12-.234-1.638-.312-3.276-.312-4.953.078-5.889.507-9.516 1.014-15.561.156-1.56.234-3.12.234-4.641 0-1.209-.039-2.379-.195-3.549-.156-1.404-.468-2.769-1.287-3.939-.975-1.443-2.379-2.184-3.861-2.184-1.131 0-2.262.429-3.276 1.365a1.849 1.849 0 0 0-.39.39c-.741.78-1.365 1.638-1.95 2.535-5.148 7.995-7.644 18.369-9.048 27.417-.234 1.638-.468 3.276-.468 4.953.039 1.521.351 2.925 1.716 2.925.702-.039.936-.195 1.092-1.17l.039-.078c.741-4.563 1.872-9.789 3.042-14.352.117-.351.195-.507.624-.507h6.864c.585 0 .702 0 .702.39-.078 1.482-.156 2.73-.156 4.173v4.641c.078 1.755.351 3.471.936 5.148.429 1.287 1.638 1.794 2.886 1.794Zm20.706 0c1.287 0 2.574-.624 2.574-1.677 0-.78-.546-1.794-.702-2.769-.312-1.833-.429-3.705-.429-5.577.078-4.29.351-6.747.741-11.349.273-3.744.663-7.449 1.209-11.154.195-1.209.273-2.379.273-3.549l-.039-1.209c-.078-1.404-1.053-2.652-2.106-2.652-1.287 0-1.95 1.794-2.457 3.432-1.95 6.201-2.106 12.831-2.691 20.124-.234-.117-.234-.273-.273-.429-.936-3.393-1.755-6.825-2.379-10.335-.429-2.262-.975-4.524-1.482-6.786-.546-2.379-1.17-6.006-3.198-6.006-1.014 0-1.326.663-1.911 1.833-1.677 4.134-2.223 9.165-2.574 13.26-.273 3.003-.468 5.967-.702 8.97-.156 1.911-.273 3.822-.273 5.733 0 2.73.156 5.733 1.053 8.385.429 1.209 1.638 1.716 2.808 1.716 1.287 0 2.613-.546 2.613-1.638 0-.702-.507-1.716-.702-2.73-.351-2.145-.39-3.51-.39-5.655 0-4.173.468-9.126.897-13.494h.117c1.287 6.045 2.925 11.271 5.031 17.199 1.014 2.925 2.145 6.357 4.992 6.357Zm8.313.117c1.287 0 2.535-.624 2.535-1.716 0-.78-.507-1.755-.663-2.769-.312-1.638-.429-3.315-.429-4.953 0-2.73.195-5.46.429-8.19.234-2.769.39-5.499.702-8.268.351-3.315 1.092-6.786 1.092-10.062l-.078-1.482c-.078-1.365-1.053-2.457-2.067-2.457-1.209 0-1.833 1.56-2.301 2.964-1.755 5.343-2.106 11.427-2.535 17.004-.273 2.847-.468 5.655-.546 8.073v3.783c0 2.184.351 4.407 1.014 6.318.39 1.209 1.599 1.755 2.847 1.755Zm26.048-.156c1.248 0 2.613-.585 2.613-1.677 0-.195-.078-.429-.156-.702-.819-2.223-.975-4.914-.975-7.332 0-4.836.624-10.257 1.014-14.82.234-2.73.585-5.421.936-8.112.156-1.17.273-2.34.273-3.51l-.039-.936c-.078-1.521-.936-2.769-2.106-2.769-1.404 0-2.652 1.95-3.588 3.276-1.404 2.067-2.418 4.29-3.51 6.474-1.287 2.535-2.34 5.187-3.432 7.8-.117.234-.195.507-.468.78-.936-3.861-1.326-6.552-2.574-10.764-.546-1.794-1.014-3.666-1.833-5.382-.273-.546-.507-1.092-.936-1.521-.468-.468-.936-.702-1.404-.702-1.326 0-2.106 1.989-2.535 3.705-1.17 4.017-1.638 8.112-1.989 12.246l-.585 6.942a83.593 83.593 0 0 0-.312 6.981l.078 3.081c.117 1.755.351 3.471.936 5.109.429 1.326 1.599 1.833 2.847 1.833 1.287 0 2.574-.585 2.574-1.638 0-.273-.039-.507-.156-.819-.819-2.301-.936-5.07-.936-7.41 0-1.95.117-3.861.273-5.772.195-3.081.468-6.162.741-9.204.078-.78.039-1.599.351-2.457.975 4.875 2.028 9.087 2.457 13.182.117 1.248.39 3.042 1.677 3.198l.429.039c.78 0 1.56-.468 1.95-1.287 1.053-2.34 1.599-4.875 2.769-7.449l2.457-5.928c.078-.156.117-.351.351-.507l-.819 10.257a76.284 76.284 0 0 0-.234 5.967c0 2.652.117 5.46 1.053 8.151.429 1.248 1.716 1.677 2.808 1.677Zm6.355-30.147a2.42 2.42 0 0 0 1.872-.858c.429-.507.741-1.131.975-1.755.351-.975.507-2.028.585-3.12 0-.273 0-.546-.039-.819-.078-.663.039-1.326-.39-1.872-.624-.858-1.443-1.209-2.34-1.209l-.429.039c-1.053.156-1.521.936-1.794 1.833-.234.663-.312 1.326-.312 1.989l.039.78c.156 1.053.507 1.95 1.599 2.34.195.078.273.156.273.234 0 .117-.078.195-.117.312-.234.429-.624.663-1.092.819-.273.117-.429.273-.429.429 0 .156.117.312.312.468.117.117.273.156.429.234.273.117.546.156.858.156Zm15.785 10.335h-5.46c-.156 0-.312 0-.546-.117 1.755-5.655 3.549-11.232 7.683-15.834.273.507.273.858.312 1.248.117.936.195 1.872.195 2.808 0 1.287-.117 2.574-.234 3.9l-.585 6.669c-.117 1.287-.078 1.287-1.365 1.326Zm4.602 19.851c1.287 0 2.574-.585 2.574-1.677 0-.858-.585-1.95-.78-3.12-.234-1.638-.312-3.276-.312-4.953.078-5.889.507-9.516 1.014-15.561.156-1.56.234-3.12.234-4.641 0-1.209-.039-2.379-.195-3.549-.156-1.404-.468-2.769-1.287-3.939-.975-1.443-2.379-2.184-3.861-2.184-1.131 0-2.262.429-3.276 1.365a1.849 1.849 0 0 0-.39.39c-.741.78-1.365 1.638-1.95 2.535-5.148 7.995-7.644 18.369-9.048 27.417-.234 1.638-.468 3.276-.468 4.953.039 1.521.351 2.925 1.716 2.925.702-.039.936-.195 1.092-1.17l.039-.078c.741-4.563 1.872-9.789 3.042-14.352.117-.351.195-.507.624-.507h6.864c.585 0 .702 0 .702.39-.078 1.482-.156 2.73-.156 4.173v4.641c.078 1.755.351 3.471.936 5.148.429 1.287 1.638 1.794 2.886 1.794Zm7.095 1.482c1.131-.078 1.833-.117 2.496-.975.273-.351.585-.39 1.014-.39h6.825c1.248 0 2.496 0 3.705-.117.975-.039 1.404-.585 1.404-1.521-.078-1.287-1.521-2.808-2.808-2.886a42.322 42.322 0 0 0-2.223-.078l-5.733.117c-.39 0-.507-.039-.507-.234.156-1.326.429-2.457.546-3.783.858-8.736 1.443-16.458 2.613-25.311.078-.78.117-1.56.117-2.301l-.039-1.287c-.117-1.365-1.014-2.496-2.145-2.496-.507 0-.975.273-1.326.78-.312.546-.546 1.131-.78 1.716-1.56 4.251-2.028 9.399-2.418 13.962-.234 2.847-.585 5.694-.819 8.541-.273 3.237-.585 6.435-1.131 9.594-.117.78-.117.78-.897.975-1.365.312-1.716 1.053-1.872 2.496 0 1.911 1.95 3.198 3.978 3.198Zm19.423 0c1.131-.078 1.833-.117 2.496-.975.273-.351.585-.39 1.014-.39h6.825c1.248 0 2.496 0 3.705-.117.975-.039 1.404-.585 1.404-1.521-.078-1.287-1.521-2.808-2.808-2.886a42.322 42.322 0 0 0-2.223-.078l-5.733.117c-.39 0-.507-.039-.507-.234.156-1.326.429-2.457.546-3.783.858-8.736 1.443-16.458 2.613-25.311.078-.78.117-1.56.117-2.301l-.039-1.287c-.117-1.365-1.014-2.496-2.145-2.496-.507 0-.975.273-1.326.78-.312.546-.546 1.131-.78 1.716-1.56 4.251-2.028 9.399-2.418 13.962-.234 2.847-.585 5.694-.819 8.541-.273 3.237-.585 6.435-1.131 9.594-.117.78-.117.78-.897.975-1.365.312-1.716 1.053-1.872 2.496 0 1.911 1.95 3.198 3.978 3.198Z" fill="#FFF8F0"/><path d="m43.288 47.302 1.81 1.8 2.121 2.101.812.82 4.233-4.213-4.732-4.72-4.244 4.212Z" fill="#5D6D7E"/><path d="m56.392 47.821 14.216 14.151a5.853 5.853 0 0 1 0 8.31 5.92 5.92 0 0 1-8.349 0l-14.217-14.15 8.35-8.31Z" fill="#FF9F00"/><path d="m54.386 49.518 1.16-1.177 14.332 14.462a4.882 4.882 0 0 1 0 6.845.828.828 0 0 1-.58.242.833.833 0 0 1-.58-1.42 3.209 3.209 0 0 0 0-4.501l-14.332-14.45Z" fill="#DDD"/><path d="m47.88 56.016 8.407-8.368-.626-.623a2.093 2.093 0 0 0-2.945 0l-5.462 5.436a2.055 2.055 0 0 0 0 2.92l.626.635ZM0 26.734C0 11.97 12.037.002 26.868.002c14.832 0 26.868 11.98 26.868 26.743 0 14.763-12.025 26.743-26.868 26.743C12.025 53.488 0 41.508 0 26.734Z" fill="#34495E"/><path d="M26.926 50.453c13.127 0 23.76-10.584 23.76-23.65 0-13.066-10.633-23.65-23.76-23.65-13.115 0-23.76 10.585-23.76 23.65 0 13.054 10.633 23.65 23.76 23.65Z" fill="#5D6D7E"/><path d="M26.926 48.872c12.246 0 22.172-9.88 22.172-22.069 0-12.188-9.926-22.08-22.172-22.08-12.245 0-22.172 9.892-22.172 22.08 0 12.189 9.927 22.069 22.172 22.069Z" fill="#CEE2F2"/><path d="M41.711 14.291a32.754 32.754 0 0 0-10.54 6.568 7.39 7.39 0 0 0-2.552-.462H25.94c-.87 0-1.74.162-2.55.462a32.753 32.753 0 0 0-10.542-6.568 1.69 1.69 0 0 0-2.168.982c-.116.288-.14.6-.081.9a32.26 32.26 0 0 0 4.174 10.676 7.667 7.667 0 0 0 3.63 3.105l-1.194 10.804c0 3.128 4.51 5.655 10.076 5.655 5.567 0 10.077-2.527 10.077-5.655l-1.194-10.804a7.666 7.666 0 0 0 3.63-3.105 32.26 32.26 0 0 0 4.174-10.676c.174-.912-.44-1.79-1.357-1.962a1.674 1.674 0 0 0-.892.08h-.012Z" fill="#DEC4A7"/><path d="m37.351 40.758-.835-7.526-3.525-.692a6.286 6.286 0 0 1-4.697-4.017l-1.02-2.828-1.02 2.828a6.286 6.286 0 0 1-4.697 4.017l-3.525.692-.835 7.526c0 3.127 4.51 5.655 10.077 5.655 5.566 0 10.077-2.539 10.077-5.655Z" fill="#F3E8D4"/><path d="M22.972 27.172c-.696 0-1.276.555-1.276 1.259v.888a1.268 1.268 0 0 0 1.31 1.224 1.266 1.266 0 0 0 1.23-1.224v-.888a1.272 1.272 0 0 0-1.264-1.259Zm8.604 0c-.696 0-1.264.566-1.264 1.259v.888a1.268 1.268 0 0 0 1.31 1.224 1.266 1.266 0 0 0 1.23-1.224v-.888a1.274 1.274 0 0 0-1.276-1.259Zm.162 6.58a.543.543 0 0 0-.544.542c0 .923-.754 1.685-1.682 1.685-.8 0-1.484-.554-1.658-1.339.07-.046.116-.104.174-.161l1.275-1.628a.948.948 0 0 0-.162-1.327.95.95 0 0 0-.58-.196H26.01a.953.953 0 0 0-.95.946.94.94 0 0 0 .196.577l1.276 1.628c.046.057.104.115.162.161a1.684 1.684 0 0 1-1.994 1.304 1.683 1.683 0 0 1-1.345-1.65c0-.3-.244-.542-.546-.542a.543.543 0 0 0-.544.542c0 1.524 1.24 2.759 2.771 2.77.881 0 1.716-.415 2.238-1.131a2.763 2.763 0 0 0 3.873.589 2.747 2.747 0 0 0 1.136-2.228.529.529 0 0 0-.545-.542Z" fill="#2B1716"/><path d="M26.544 7.47a1.98 1.98 0 0 0-1.728-.866 19.364 19.364 0 0 0-8.547 2.551 1.933 1.933 0 0 0-.707 2.643 1.952 1.952 0 0 0 2.656.704 15.448 15.448 0 0 1 6.818-2.031 1.917 1.917 0 0 0 1.82-2.02V8.44c0-.347-.115-.681-.313-.97Zm-12.478 6.36a1.941 1.941 0 0 0-3.108-.139l-.011.012A19.102 19.102 0 0 0 8.07 33.024a1.948 1.948 0 0 0 2.574.981 1.934 1.934 0 0 0 1.032-2.447 15.311 15.311 0 0 1 2.296-15.431 1.934 1.934 0 0 0 .093-2.297Z" fill="#fff"/></svg>