<svg width="200" height="72" fill="none" xmlns="http://www.w3.org/2000/svg"><path d="M78.099 32.276h-5.18c-.148 0-.296 0-.518-.111 1.665-5.365 3.367-10.656 7.289-15.022.259.481.259.814.296 1.184.111.888.185 1.776.185 2.664 0 1.221-.111 2.442-.222 3.7l-.555 6.327c-.111 1.221-.074 1.221-1.295 1.258Zm4.366 18.833c1.221 0 2.442-.555 2.442-1.591 0-.814-.555-1.85-.74-2.96-.222-1.554-.296-3.108-.296-4.699.074-5.587.481-9.028.962-14.763.148-1.48.222-2.96.222-4.403 0-1.147-.037-2.257-.185-3.367-.148-1.332-.444-2.627-1.221-3.737-.925-1.369-2.257-2.072-3.663-2.072-1.073 0-2.146.407-3.108 1.295a1.754 1.754 0 0 0-.37.37c-.703.74-1.295 1.554-1.85 2.405-4.884 7.585-7.252 17.427-8.584 26.011-.222 1.554-.444 3.108-.444 4.699.037 1.443.333 2.775 1.628 2.775.666-.037.888-.185 1.036-1.11l.037-.074c.703-4.329 1.776-9.287 2.886-13.616.111-.333.185-.481.592-.481h6.512c.555 0 .666 0 .666.37-.074 1.406-.148 2.59-.148 3.959v4.403c.074 1.665.333 3.293.888 4.884.407 1.221 1.554 1.702 2.738 1.702Zm19.644 0c1.221 0 2.442-.592 2.442-1.591 0-.74-.518-1.702-.666-2.627-.296-1.739-.407-3.515-.407-5.291.074-4.07.333-6.401.703-10.767.259-3.552.629-7.067 1.147-10.582.185-1.147.259-2.257.259-3.367l-.037-1.147c-.074-1.332-.999-2.516-1.998-2.516-1.221 0-1.85 1.702-2.331 3.256-1.85 5.883-1.998 12.173-2.553 19.092-.222-.111-.222-.259-.259-.407-.888-3.219-1.665-6.475-2.257-9.805-.407-2.146-.925-4.292-1.406-6.438-.518-2.257-1.11-5.698-3.034-5.698-.962 0-1.258.629-1.813 1.739-1.59 3.922-2.109 8.695-2.442 12.58-.259 2.849-.444 5.661-.666 8.51-.148 1.813-.259 3.626-.259 5.439 0 2.59.148 5.439 1 7.955.406 1.147 1.553 1.628 2.663 1.628 1.221 0 2.48-.518 2.48-1.554 0-.666-.482-1.628-.667-2.59-.333-2.035-.37-3.33-.37-5.365 0-3.959.444-8.658.851-12.802h.111c1.221 5.735 2.775 10.693 4.773 16.317.962 2.775 2.035 6.031 4.736 6.031Zm7.887.111c1.221 0 2.405-.592 2.405-1.628 0-.74-.481-1.665-.629-2.627-.296-1.554-.407-3.145-.407-4.699 0-2.59.185-5.18.407-7.77.222-2.627.37-5.217.666-7.844.333-3.145 1.036-6.438 1.036-9.546L113.4 15.7c-.074-1.295-.999-2.331-1.961-2.331-1.147 0-1.739 1.48-2.183 2.812-1.665 5.069-1.998 10.841-2.405 16.132-.259 2.701-.444 5.365-.518 7.659v3.589c0 2.072.333 4.181.962 5.994.37 1.147 1.517 1.665 2.701 1.665Zm24.712-.148c1.184 0 2.479-.555 2.479-1.591 0-.185-.074-.407-.148-.666-.777-2.109-.925-4.662-.925-6.956 0-4.588.592-9.731.962-14.06.222-2.59.555-5.143.888-7.696.148-1.11.259-2.22.259-3.33l-.037-.888c-.074-1.443-.888-2.627-1.998-2.627-1.332 0-2.516 1.85-3.404 3.108-1.332 1.961-2.294 4.07-3.33 6.142-1.221 2.405-2.22 4.921-3.256 7.4-.111.222-.185.481-.444.74-.888-3.663-1.258-6.216-2.442-10.212-.518-1.702-.962-3.478-1.739-5.106-.259-.518-.481-1.036-.888-1.443-.444-.444-.888-.666-1.332-.666-1.258 0-1.998 1.887-2.405 3.515-1.11 3.811-1.554 7.696-1.887 11.618l-.555 6.586a79.306 79.306 0 0 0-.296 6.623l.074 2.923c.111 1.665.333 3.293.888 4.847.407 1.258 1.517 1.739 2.701 1.739 1.221 0 2.442-.555 2.442-1.554 0-.259-.037-.481-.148-.777-.777-2.183-.888-4.81-.888-7.03 0-1.85.111-3.663.259-5.476.185-2.923.444-5.846.703-8.732.074-.74.037-1.517.333-2.331.925 4.625 1.924 8.621 2.331 12.506.111 1.184.37 2.886 1.591 3.034l.407.037c.74 0 1.48-.444 1.85-1.221.999-2.22 1.517-4.625 2.627-7.067l2.331-5.624c.074-.148.111-.333.333-.481l-.777 9.731a72.372 72.372 0 0 0-.222 5.661c0 2.516.111 5.18.999 7.733.407 1.184 1.628 1.591 2.664 1.591Zm6.029-28.601c.666 0 1.295-.259 1.776-.814.407-.481.703-1.073.925-1.665.333-.925.481-1.924.555-2.96 0-.259 0-.518-.037-.777-.074-.629.037-1.258-.37-1.776-.592-.814-1.369-1.147-2.22-1.147l-.407.037c-.999.148-1.443.888-1.702 1.739-.222.629-.296 1.258-.296 1.887l.037.74c.148.999.481 1.85 1.517 2.22.185.074.259.148.259.222 0 .111-.074.185-.111.296-.222.407-.592.629-1.036.777-.259.111-.407.259-.407.407 0 .148.111.296.296.444.111.111.259.148.407.222.259.111.518.148.814.148Zm14.975 9.805h-5.18c-.148 0-.296 0-.518-.111 1.665-5.365 3.367-10.656 7.289-15.022.259.481.259.814.296 1.184.111.888.185 1.776.185 2.664 0 1.221-.111 2.442-.222 3.7l-.555 6.327c-.111 1.221-.074 1.221-1.295 1.258Zm4.366 18.833c1.221 0 2.442-.555 2.442-1.591 0-.814-.555-1.85-.74-2.96-.222-1.554-.296-3.108-.296-4.699.074-5.587.481-9.028.962-14.763.148-1.48.222-2.96.222-4.403 0-1.147-.037-2.257-.185-3.367-.148-1.332-.444-2.627-1.221-3.737-.925-1.369-2.257-2.072-3.663-2.072-1.073 0-2.146.407-3.108 1.295a1.754 1.754 0 0 0-.37.37c-.703.74-1.295 1.554-1.85 2.405-4.884 7.585-7.252 17.427-8.584 26.011-.222 1.554-.444 3.108-.444 4.699.037 1.443.333 2.775 1.628 2.775.666-.037.888-.185 1.036-1.11l.037-.074c.703-4.329 1.776-9.287 2.886-13.616.111-.333.185-.481.592-.481h6.512c.555 0 .666 0 .666.37-.074 1.406-.148 2.59-.148 3.959v4.403c.074 1.665.333 3.293.888 4.884.407 1.221 1.554 1.702 2.738 1.702Zm6.731 1.406c1.073-.074 1.739-.111 2.368-.925.259-.333.555-.37.962-.37h6.475c1.184 0 2.368 0 3.515-.111.925-.037 1.332-.555 1.332-1.443-.074-1.221-1.443-2.664-2.664-2.738-.703-.037-1.406-.074-2.109-.074l-5.439.111c-.37 0-.481-.037-.481-.222.148-1.258.407-2.331.518-3.589.814-8.288 1.369-15.614 2.479-24.013.074-.74.111-1.48.111-2.183l-.037-1.221c-.111-1.295-.962-2.368-2.035-2.368-.481 0-.925.259-1.258.74-.296.518-.518 1.073-.74 1.628-1.48 4.033-1.924 8.917-2.294 13.246-.222 2.701-.555 5.402-.777 8.103-.259 3.071-.555 6.105-1.073 9.102-.111.74-.111.74-.851.925-1.295.296-1.628.999-1.776 2.368 0 1.813 1.85 3.034 3.774 3.034Zm18.428 0c1.073-.074 1.739-.111 2.368-.925.259-.333.555-.37.962-.37h6.475c1.184 0 2.368 0 3.515-.111.925-.037 1.332-.555 1.332-1.443-.074-1.221-1.443-2.664-2.664-2.738a40.152 40.152 0 0 0-2.109-.074l-5.439.111c-.37 0-.481-.037-.481-.222.148-1.258.407-2.331.518-3.589.814-8.288 1.369-15.614 2.479-24.013.074-.74.111-1.48.111-2.183l-.037-1.221c-.111-1.295-.962-2.368-2.035-2.368-.481 0-.925.259-1.258.74-.296.518-.518 1.073-.74 1.628-1.48 4.033-1.924 8.917-2.294 13.246-.222 2.701-.555 5.402-.777 8.103-.259 3.071-.555 6.105-1.073 9.102-.111.74-.111.74-.851.925-1.295.296-1.628.999-1.776 2.368 0 1.813 1.85 3.034 3.774 3.034Z" fill="#FFF8F0"/><path d="m42.687 46.643 1.784 1.776 2.092 2.071.8.808 4.175-4.154-4.666-4.655-4.185 4.154Z" fill="#5D6D7E"/><path d="m55.608 47.155 14.02 13.954a5.772 5.772 0 0 1 0 8.195 5.837 5.837 0 0 1-8.233 0L47.374 55.35l8.233-8.195Z" fill="#FFF8F0"/><path d="m53.63 48.828 1.144-1.16 14.133 14.26a4.815 4.815 0 0 1 0 6.75.816.816 0 0 1-.571.24.822.822 0 0 1-.572-1.4 3.164 3.164 0 0 0 0-4.44L53.63 48.828Z" fill="#DDD"/><path d="m47.215 55.236 8.29-8.251-.617-.615a2.063 2.063 0 0 0-2.904 0l-5.386 5.36c-.8.798-.8 2.084 0 2.88l.617.626ZM0 26.36C0 11.803 11.87 0 26.495 0 41.12 0 52.99 11.814 52.99 26.372c0 14.557-11.858 26.371-26.495 26.371S0 40.93 0 26.36Z" fill="#34495E"/><path d="M26.552 49.75c12.944 0 23.43-10.437 23.43-23.321 0-12.884-10.486-23.321-23.43-23.321-12.933 0-23.43 10.437-23.43 23.32 0 12.874 10.486 23.322 23.43 23.322Z" fill="#5D6D7E"/><path d="M26.552 48.191c12.075 0 21.864-9.743 21.864-21.762 0-12.02-9.788-21.774-21.864-21.774-12.075 0-21.864 9.755-21.864 21.774 0 12.02 9.789 21.762 21.864 21.762Z" fill="#CEE2F2"/><path d="M41.132 14.091a32.298 32.298 0 0 0-10.395 6.476 7.284 7.284 0 0 0-2.515-.455H25.58c-.857 0-1.715.16-2.515.455a32.3 32.3 0 0 0-10.395-6.476 1.666 1.666 0 0 0-2.138.968 1.573 1.573 0 0 0-.08.887 31.812 31.812 0 0 0 4.116 10.528 7.56 7.56 0 0 0 3.58 3.062L16.97 40.19c0 3.084 4.448 5.577 9.937 5.577 5.488 0 9.937-2.493 9.937-5.577l-1.178-10.654a7.56 7.56 0 0 0 3.579-3.062 31.812 31.812 0 0 0 4.117-10.528c.171-.899-.435-1.764-1.338-1.935a1.651 1.651 0 0 0-.88.08h-.012Z" fill="#DEC4A7"/><path d="m36.832 40.19-.823-7.421-3.476-.683a6.198 6.198 0 0 1-4.632-3.961l-1.006-2.789-1.006 2.789a6.198 6.198 0 0 1-4.631 3.96l-3.476.684-.824 7.42c0 3.085 4.448 5.578 9.937 5.578 5.489 0 9.937-2.504 9.937-5.577Z" fill="#F3E8D4"/><path d="M31.298 33.28a.536.536 0 0 0-.538.536c0 .91-.743 1.661-1.658 1.661a1.673 1.673 0 0 1-1.635-1.32c.069-.045.114-.102.171-.16l1.258-1.604c.32-.41.24-.99-.16-1.309a.937.937 0 0 0-.572-.193H25.65a.94.94 0 0 0-.938.933c0 .205.069.41.194.569l1.258 1.605a1.1 1.1 0 0 0 .16.16 1.66 1.66 0 0 1-1.966 1.285 1.66 1.66 0 0 1-1.327-1.627.536.536 0 0 0-.537-.535.536.536 0 0 0-.538.535c0 1.502 1.224 2.72 2.733 2.731a2.73 2.73 0 0 0 2.207-1.115 2.725 2.725 0 0 0 3.82.58 2.708 2.708 0 0 0 1.12-2.196.522.522 0 0 0-.537-.535Zm-.161-6.487c-.686 0-1.246.558-1.246 1.24v.877a1.25 1.25 0 0 0 1.292 1.207 1.249 1.249 0 0 0 1.212-1.207v-.876a1.256 1.256 0 0 0-1.258-1.24Zm-8.484 0a1.25 1.25 0 0 0-1.258 1.24v.877a1.25 1.25 0 0 0 1.292 1.207 1.249 1.249 0 0 0 1.212-1.207v-.876a1.254 1.254 0 0 0-1.246-1.24Z" fill="#2B1716"/><path d="M13.87 13.636a1.914 1.914 0 0 0-3.065-.137l-.01.012a18.836 18.836 0 0 0-2.836 19.053c.434.967 1.566 1.4 2.538.967a1.907 1.907 0 0 0 1.018-2.413 15.099 15.099 0 0 1 2.264-15.217c.526-.649.56-1.57.092-2.265Zm12.305-6.272a1.952 1.952 0 0 0-1.704-.853 19.095 19.095 0 0 0-8.428 2.515 1.906 1.906 0 0 0-.697 2.607 1.925 1.925 0 0 0 2.618.694 15.234 15.234 0 0 1 6.724-2.003 1.89 1.89 0 0 0 1.796-1.992V8.32a1.7 1.7 0 0 0-.31-.956Z" fill="#fff"/></svg>