<svg width="128" height="123" viewBox="0 0 128 123" fill="none" xmlns="http://www.w3.org/2000/svg">
<path d="M119.23 0.414434C104.269 6.14067 90.595 14.6419 78.8746 25.4777C75.7669 24.3325 72.4372 23.7158 69.1076 23.7158H58.8522C55.5225 23.7158 52.1929 24.3325 49.0852 25.4777C37.3648 14.6419 23.691 6.14067 8.72969 0.414434C5.40003 -0.81891 1.67081 0.854913 0.427735 4.15851C-0.0162197 5.25971 -0.105009 6.44901 0.116968 7.59425C2.95828 21.9979 8.37453 35.829 16.0993 48.3386C19.3402 53.6685 24.2237 57.809 29.9951 60.1876L25.4224 101.416C25.4224 113.353 42.6922 123 64.0021 123C85.3119 123 102.582 113.353 102.582 101.416L98.009 60.1876C103.78 57.809 108.664 53.6685 111.905 48.3386C119.63 35.829 125.046 21.9979 127.887 7.59425C128.553 4.11446 126.2 0.766817 122.693 0.106097C121.539 -0.114143 120.34 0.0180016 119.274 0.414434H119.23Z" fill="#DEC4A7"/>
<path d="M102.537 101.416L99.3408 72.6971L85.8446 70.0543C77.5427 68.4245 70.7502 62.6101 67.8644 54.7256L63.9577 43.9338L60.0508 54.7256C57.1651 62.6101 50.3726 68.4245 42.0707 70.0543L28.5745 72.6971L25.378 101.416C25.378 113.353 42.6478 123 63.9577 123C85.2675 123 102.537 113.309 102.537 101.416Z" fill="#F3E8D4"/>
<path d="M81.0496 74.6793C79.8954 74.6793 78.963 75.6043 78.963 76.7496C78.963 80.2734 76.0773 83.1806 72.5257 83.1806C69.4624 83.1806 66.8431 81.0663 66.1771 78.071C66.4435 77.8948 66.6211 77.6746 66.8431 77.4543L71.7266 71.2436C72.9697 69.6578 72.6589 67.4114 71.105 66.178C70.4835 65.6935 69.6844 65.4292 68.8853 65.4292H59.1182C57.1205 65.4292 55.4778 67.059 55.4778 69.0412C55.4778 69.834 55.7442 70.6269 56.2325 71.2436L61.116 77.4543C61.2936 77.6746 61.5156 77.8948 61.7376 78.071C61.0273 81.5508 57.6088 83.7532 54.1016 83.0484C51.0827 82.4318 48.9517 79.7889 48.9517 76.7496C48.9517 75.6043 48.0194 74.6793 46.8651 74.6793C45.7108 74.6793 44.7785 75.6043 44.7785 76.7496C44.7785 82.5639 49.5288 87.277 55.389 87.3211C58.7631 87.3211 61.9596 85.7354 63.9574 83.0044C67.4202 87.7175 74.0795 88.7306 78.7855 85.2508C81.538 83.2687 83.1362 80.0972 83.1362 76.7496C83.1362 75.5603 82.2039 74.6353 81.0496 74.6793Z" fill="#2B1716"/>
<path d="M80.4278 49.572C77.7641 49.572 75.5887 51.7304 75.5887 54.3733V57.765C75.6775 60.4078 77.8973 62.5221 80.6054 62.4341C83.1804 62.346 85.2226 60.3198 85.3113 57.765V54.3733C85.2669 51.6863 83.0916 49.572 80.4278 49.572Z" fill="#2B1716"/>
<path d="M47.4866 49.572C44.8229 49.572 42.6031 51.6863 42.6031 54.3733V57.765C42.6919 60.4078 44.9117 62.5221 47.6198 62.4341C50.1948 62.346 52.237 60.3198 52.3258 57.765V54.3733C52.2814 51.7304 50.1504 49.572 47.4866 49.572Z" fill="#2B1716"/>
</svg>
