<svg width="128" height="123" viewBox="0 0 128 123" fill="none" xmlns="http://www.w3.org/2000/svg">
<path d="M119.23 0.414434C104.269 6.14067 90.595 14.6419 78.8746 25.4777C75.7669 24.3325 72.4372 23.7158 69.1076 23.7158H58.8522C55.5225 23.7158 52.1929 24.3325 49.0852 25.4777C37.3648 14.6419 23.691 6.14067 8.72969 0.414434C5.40003 -0.81891 1.67081 0.854913 0.427735 4.15851C-0.0162197 5.25971 -0.105009 6.44901 0.116968 7.59425C2.95828 21.9979 8.37453 35.829 16.0993 48.3386C19.3402 53.6685 24.2237 57.809 29.9951 60.1876L25.4224 101.416C25.4224 113.353 42.6922 123 64.0021 123C85.3119 123 102.582 113.353 102.582 101.416L98.009 60.1876C103.78 57.809 108.664 53.6685 111.905 48.3386C119.63 35.829 125.046 21.9979 127.887 7.59425C128.553 4.11446 126.2 0.766817 122.693 0.106097C121.539 -0.114143 120.34 0.0180016 119.274 0.414434H119.23Z" fill="black"/>
</svg>
