<svg width="81" height="80" viewBox="0 0 81 80" fill="none" xmlns="http://www.w3.org/2000/svg">
<path d="M68.9711 63.3296H42.3045C41.3845 63.3296 40.6378 64.0763 40.6378 64.9963C40.6378 65.9163 41.3845 66.663 42.3045 66.663H68.9713C69.8913 66.663 70.638 65.9163 70.638 64.9963C70.638 64.0763 69.8911 63.3296 68.9711 63.3296Z" fill="currentColor"/>
<path d="M68.9711 69.9961H42.3045C41.3845 69.9961 40.6378 70.7428 40.6378 71.6628C40.6378 72.5828 41.3845 73.3296 42.3045 73.3296H68.9713C69.8913 73.3296 70.638 72.5828 70.638 71.6628C70.6378 70.7428 69.8911 69.9961 68.9711 69.9961Z" fill="currentColor"/>
<path d="M12.3046 63.3296C9.5479 63.3296 7.30462 65.5729 7.30462 68.3296C7.30462 71.0863 9.5479 73.3296 12.3046 73.3296C15.0613 73.3296 17.3046 71.0863 17.3046 68.3296C17.3046 65.5729 15.0612 63.3296 12.3046 63.3296ZM12.3046 69.9961C11.3846 69.9961 10.6379 69.2494 10.6379 68.3294C10.6379 67.4094 11.3846 66.6627 12.3046 66.6627C13.2246 66.6627 13.9713 67.4094 13.9713 68.3294C13.9712 69.2496 13.2246 69.9961 12.3046 69.9961Z" fill="currentColor"/>
<path d="M12.3046 43.3296C9.5479 43.3296 7.30462 45.5729 7.30462 48.3296C7.30462 51.0863 9.5479 53.3296 12.3046 53.3296C15.0613 53.3296 17.3046 51.0863 17.3046 48.3296C17.3046 45.5729 15.0612 43.3296 12.3046 43.3296ZM12.3046 49.9961C11.3846 49.9961 10.6379 49.2494 10.6379 48.3294C10.6379 47.4094 11.3846 46.6627 12.3046 46.6627C13.2246 46.6627 13.9713 47.4094 13.9713 48.3294C13.9713 49.2494 13.2246 49.9961 12.3046 49.9961Z" fill="currentColor"/>
<path d="M68.9711 29.9961H42.3045C41.3845 29.9961 40.6378 30.7428 40.6378 31.6628C40.6378 32.5828 41.3845 33.3295 42.3045 33.3295H68.9713C69.8913 33.3295 70.638 32.5828 70.638 31.6628C70.638 30.7428 69.8911 29.9961 68.9711 29.9961Z" fill="currentColor"/>
<path d="M80.6378 31.6633V24.9966C80.6378 23.3966 80.1611 21.9133 79.3745 20.6398C79.3513 20.5931 79.3478 20.5398 79.3213 20.4966L69.0145 3.93C67.4845 1.47 64.8378 0 61.9378 0H19.3478C16.4445 0 13.8011 1.47 12.2711 3.93L1.96454 20.4966C1.94782 20.5233 1.94782 20.5533 1.93125 20.5833C1.12454 21.8666 0.637817 23.3733 0.637817 24.9966V31.6633C0.637817 34.3966 1.9811 36.81 4.02454 38.33C1.9811 39.8533 0.637817 42.2633 0.637817 44.9966V51.6633C0.637817 54.3966 1.9811 56.81 4.02454 58.33C1.9811 59.8533 0.637817 62.2633 0.637817 64.9966V71.6633C0.637817 76.2566 4.37782 79.9966 8.9711 79.9966H72.3044C76.8977 79.9966 80.6377 76.2566 80.6377 71.6633V64.9966C80.6377 62.2633 79.2944 59.8498 77.2509 58.3298C79.2945 56.81 80.6378 54.3966 80.6378 51.6633V44.9966C80.6378 42.2633 79.2945 39.8498 77.2511 38.3298C79.2945 36.81 80.6378 34.4 80.6378 31.6633ZM15.1011 5.69C16.0178 4.21328 17.6044 3.33 19.3444 3.33H61.9344C63.6744 3.33 65.2611 4.21328 66.1777 5.69L73.0544 16.74C72.8044 16.7167 72.5611 16.6633 72.3044 16.6633H8.9711C8.71438 16.6633 8.47438 16.7166 8.22438 16.74L15.1011 5.69ZM77.3045 64.9966V71.6633C77.3045 74.42 75.0613 76.6633 72.3045 76.6633H8.9711C6.21438 76.6633 3.9711 74.42 3.9711 71.6633V64.9966C3.9711 62.2399 6.21438 59.9966 8.9711 59.9966H72.3044C75.0611 59.9966 77.3045 62.24 77.3045 64.9966ZM77.3045 44.9966V51.6633C77.3045 54.42 75.0613 56.6633 72.3045 56.6633H8.9711C6.21438 56.6633 3.9711 54.42 3.9711 51.6633V44.9966C3.9711 42.2399 6.21438 39.9966 8.9711 39.9966H72.3044C75.0611 39.9966 77.3045 42.24 77.3045 44.9966ZM77.3045 31.6633C77.3045 34.42 75.0613 36.6633 72.3045 36.6633H8.9711C6.21438 36.6633 3.9711 34.42 3.9711 31.6633V24.9966C3.9711 22.2398 6.21438 19.9966 8.9711 19.9966H72.3044C75.0611 19.9966 77.3044 22.2398 77.3044 24.9966L77.3045 31.6633Z" fill="currentColor"/>
<path d="M68.9711 23.3296H42.3045C41.3845 23.3296 40.6378 24.0763 40.6378 24.9963C40.6378 25.9163 41.3845 26.663 42.3045 26.663H68.9713C69.8913 26.663 70.638 25.9163 70.638 24.9963C70.638 24.0763 69.8911 23.3296 68.9711 23.3296Z" fill="currentColor"/>
<path d="M68.9711 49.9961H42.3045C41.3845 49.9961 40.6378 50.7428 40.6378 51.6628C40.6378 52.5828 41.3845 53.3296 42.3045 53.3296H68.9713C69.8913 53.3296 70.638 52.5828 70.638 51.6628C70.638 50.7428 69.8911 49.9961 68.9711 49.9961Z" fill="currentColor"/>
<path d="M68.9711 43.3296H42.3045C41.3845 43.3296 40.6378 44.0763 40.6378 44.9963C40.6378 45.9163 41.3845 46.663 42.3045 46.663H68.9713C69.8913 46.663 70.638 45.9163 70.638 44.9963C70.638 44.0763 69.8911 43.3296 68.9711 43.3296Z" fill="currentColor"/>
<path d="M12.3046 23.3296C9.5479 23.3296 7.30462 25.5728 7.30462 28.3296C7.30462 31.0863 9.5479 33.3296 12.3046 33.3296C15.0613 33.3296 17.3046 31.0863 17.3046 28.3296C17.3046 25.5728 15.0612 23.3296 12.3046 23.3296ZM12.3046 29.9961C11.3846 29.9961 10.6379 29.2494 10.6379 28.3294C10.6379 27.4094 11.3846 26.6627 12.3046 26.6627C13.2246 26.6627 13.9713 27.4094 13.9713 28.3294C13.9713 29.2494 13.2246 29.9961 12.3046 29.9961Z" fill="currentColor"/>
</svg>
